<svg width="16" height="16" viewBox="0 0 16 16" xmlns="http://www.w3.org/2000/svg">
    <g fill="none" fill-rule="evenodd">
        <path fill="#F7F7F9" d="M-337-374h1920V706H-337z"/>
        <g transform="translate(-17 -8)">
            <rect fill="#060608" width="120" height="32" rx="16"/>
            <path d="M31.25 9.667h-12.5a.083.083 0 0 0-.083.083v12.5c0 .046.037.083.083.083h12.5a.083.083 0 0 0 .083-.083V9.75a.083.083 0 0 0-.083-.083zm-10.333 2.416c0-.046.037-.083.083-.083h8c.046 0 .083.037.083.083v1.334A.083.083 0 0 1 29 13.5h-8a.083.083 0 0 1-.083-.083v-1.334zm3.5 7.834a.083.083 0 0 1-.084.083h-3.329a.083.083 0 0 1-.083-.083V14.75a.083.083 0 0 1 .083-.083h3.33a.083.083 0 0 1 .083.083v5.167zm4.666 0a.083.083 0 0 1-.087.083H25.67a.083.083 0 0 1-.084-.083V18a.083.083 0 0 1 .084-.083H29a.083.083 0 0 1 .087.083l-.004 1.917zm0-3.25a.083.083 0 0 1-.087.083H25.67a.083.083 0 0 1-.084-.083V14.75c0-.046.038-.083.084-.083H29c.046 0 .083.037.083.083v1.917z" fill="#F7F7F9" fill-rule="nonzero"/>
        </g>
    </g>
</svg>
