<?xml version="1.0" encoding="UTF-8"?>
<svg width="24px" height="24px" viewBox="0 0 24 24" version="1.1" xmlns="http://www.w3.org/2000/svg" xmlns:xlink="http://www.w3.org/1999/xlink">
    <title>block-reward</title>
    <g id="页面-1" stroke="none" stroke-width="1" fill="none" fill-rule="evenodd">
        <g id="assets" transform="translate(-895.000000, -540.000000)" fill-rule="nonzero">
            <g id="block-reward" transform="translate(895.000000, 540.000000)">
                <rect id="矩形" fill="#000000" opacity="0" x="0" y="0" width="24" height="24"></rect>
                <path d="M12.0001875,1.91854688 C6.43232813,1.91854688 1.91878125,6.43228125 1.91878125,12.0000938 C1.91878125,17.5677188 6.43232813,22.0813594 12.0001875,22.0813594 C17.5676719,22.0813594 22.0814063,17.5677188 22.0814063,12.0000938 C22.0814063,6.43228125 17.5676719,1.91854688 12.0001875,1.91854688 Z" id="路径" fill="#F8F8F9"></path>
                <path d="M12.0001875,0.046875 C5.40904687,0.046875 0.046875,5.40904687 0.046875,12.0000938 C0.046875,18.5910469 5.40904687,23.953125 12.0001875,23.953125 C18.5911406,23.953125 23.953125,18.5910469 23.953125,12.0000938 C23.953125,5.40904687 18.5911406,0.046875 12.0001875,0.046875 Z M12.0001875,23.5702031 C5.62026563,23.5702031 0.4299375,18.379875 0.4299375,12.0000937 C0.4299375,5.62021875 5.62026563,0.429796875 12.0001875,0.429796875 C18.3799687,0.429796875 23.5700625,5.62021875 23.5700625,12.0000937 C23.5700625,18.379875 18.3799219,23.5702031 12.0001875,23.5702031 Z" id="形状" fill="#F7F7F9"></path>
                <path d="M11.2701562,15.7499531 C10.6187812,16.2795469 9.63792187,15.9607969 9.421875,15.1495312 C9.28092188,14.6199844 8.78798438,14.2618594 8.24109375,14.2915781 C8.11297156,14.2987601 7.98454475,14.284663 7.86103125,14.2498594 L6.063,17.62425 L8.47720312,17.40075 L9.63820312,19.5293437 L11.7780938,15.5132813 C11.5918989,15.549214 11.4174369,15.630504 11.2701562,15.7499531 L11.2701562,15.7499531 Z" id="路径" fill="#0FBCC0"></path>
                <path d="M17.3525625,9.3875625 C16.89225,9.08995312 16.7041875,8.51071875 16.9013906,7.99935937 C17.2033125,7.21626562 16.5973594,6.38203125 15.759,6.42726562 C15.2119688,6.45670312 14.7190313,6.098625 14.5779844,5.5693125 C14.3622656,4.75795313 13.3814063,4.43934375 12.7298438,4.96870313 C12.3045,5.31417187 11.6955469,5.31417187 11.2701563,4.96870313 C10.6187813,4.43939062 9.63792188,4.758 9.421875,5.5693125 C9.28092188,6.098625 8.78798438,6.45670312 8.24109375,6.42726562 C7.40264063,6.38203125 6.7966875,7.2163125 7.09870313,7.99935937 C7.29571875,8.51076562 7.10751563,9.09 6.64776563,9.3875625 C5.94285938,9.84365625 5.94285938,10.8749531 6.64776563,11.331 C7.10751563,11.6286094 7.29571875,12.2080781 7.09870313,12.7191562 C6.79673438,13.5025781 7.40264063,14.3368594 8.24109375,14.2915312 C8.78803125,14.2618125 9.28096875,14.6199375 9.421875,15.1494844 C9.637875,15.96075 10.6187813,16.2794531 11.2701563,15.7499062 C11.6955,15.4046719 12.3044531,15.4046719 12.7298438,15.7499062 C13.3814062,16.2795 14.3622656,15.96075 14.5779844,15.1494844 C14.7190781,14.6199375 15.2119688,14.2618125 15.759,14.2915312 C16.5973594,14.3368125 17.2033594,13.5025312 16.9013906,12.7191562 C16.7041875,12.2080781 16.89225,11.6285625 17.3525625,11.331 C18.0571406,10.8749531 18.0571406,9.84365625 17.3525625,9.3875625 Z" id="路径" fill="#FF7083"></path>
                <path d="M16.1390156,14.2498594 C16.0155176,14.2846604 15.8871067,14.2987575 15.759,14.2915781 C15.2119688,14.2618594 14.7190313,14.6199844 14.5779844,15.1495313 C14.3622656,15.9607969 13.3814063,16.2795 12.7298438,15.7499531 C12.5825729,15.6305545 12.4081503,15.5492839 12.222,15.5133281 L14.3618906,19.5293906 L15.5228906,17.4007969 L17.9370937,17.6242969 L16.1390156,14.2498594 L16.1390156,14.2498594 Z" id="路径" fill="#0FBCC0"></path>
                <path d="M11.9998125,6.37504688 C9.7995,6.37504688 8.015625,8.15878125 8.015625,10.359375 C8.015625,12.559875 9.7995,14.3436094 11.9998125,14.3436094 C14.2004063,14.3436094 15.984375,12.5598281 15.984375,10.359375 C15.984375,8.15878125 14.2004063,6.37504688 11.9998125,6.37504688 Z" id="路径" fill="#F7F7F9"></path>
                <path d="M11.9998125,7.36865625 C10.348125,7.36865625 9.009,8.70759375 9.009,10.359375 C9.009,12.0110625 10.3480781,13.3501406 11.9998125,13.3501406 C13.6515938,13.3501406 14.9906719,12.0110625 14.9906719,10.359375 C14.9906719,8.70759375 13.6515937,7.36865625 11.9998125,7.36865625 L11.9998125,7.36865625 Z" id="路径" fill="#0FBCC0"></path>
                <path d="M13.2057188,10.5459375 C13.0990312,10.4229844 12.9559688,10.3417969 12.7760625,10.3032188 C12.8110049,10.2880327 12.8456071,10.2720757 12.8798438,10.2553594 C12.8991562,10.2458438 12.9339375,10.2215156 12.983625,10.1827969 C13.1303437,10.0722188 13.2035625,9.90332813 13.2035625,9.67640625 C13.2035625,9.48815625 13.1386406,9.31959375 13.0085625,9.17025 C12.9366094,9.08990625 12.8293594,9.02639063 12.6867656,8.97895313 C12.6422524,8.96467103 12.5969403,8.95301041 12.5510625,8.94403125 L12.5510625,8.5749375 L12.0420937,8.5749375 L12.0420937,8.90859375 L11.7007031,8.90859375 L11.7007031,8.5749375 L11.1915469,8.5749375 L11.1915469,8.90859375 L10.6342969,8.90859375 L10.6342969,9.456375 L11.0493281,9.456375 L11.0493281,11.2620469 L10.6342969,11.2620469 L10.6342969,11.8100156 L11.1915469,11.8100156 L11.1915469,12.1438125 L11.7007031,12.1438125 L11.7007031,11.8100156 L12.0420937,11.8100156 L12.0420937,12.1438125 L12.5510625,12.1438125 L12.5510625,11.7975938 C12.8278594,11.7677344 13.0307812,11.68275 13.158,11.5403906 C13.2961875,11.3854688 13.3654687,11.206875 13.3654687,11.00475 C13.3654687,10.822125 13.312125,10.6694063 13.2057187,10.5459375 L13.2057188,10.5459375 Z M11.6969531,9.45632813 L12.00825,9.45632813 C12.199125,9.45632813 12.3345469,9.47714063 12.41475,9.51867188 C12.4951875,9.56010937 12.5351719,9.64509375 12.5351719,9.77395313 C12.5351719,9.90248438 12.491625,9.98639063 12.4044844,10.0249687 C12.31725,10.0637812 12.18375,10.0831406 12.0040781,10.0831406 L11.6969531,10.0831406 L11.6969531,9.45632813 L11.6969531,9.45632813 Z M12.5582344,11.1935625 C12.4652813,11.2393125 12.32625,11.262 12.1409063,11.262 L11.6969531,11.262 L11.6969531,10.5939375 L12.0787031,10.5939375 C12.2944688,10.5939375 12.4514531,10.6154063 12.5497031,10.6581094 C12.6480469,10.7011406 12.6972188,10.7896406 12.6972188,10.9238906 C12.6972656,11.058 12.6509531,11.1479531 12.5582344,11.1935625 Z" id="形状" fill="#FFFFFF"></path>
                <path d="M13.2578906,19.67475 C12.823416,19.5658269 12.4841813,19.2265741 12.3752813,18.7920938 L12.3565781,18.7179844 L12.3380156,18.7920938 C12.2290729,19.2266004 11.8897839,19.5658534 11.4552656,19.67475 L11.3812969,19.6933125 L11.4552656,19.7119219 C11.8898386,19.8207516 12.2291629,20.1600578 12.3380156,20.594625 L12.3565781,20.6686875 L12.3752812,20.594625 C12.48411,20.1600947 12.8233719,19.8207968 13.2578906,19.7119219 L13.3320938,19.6933125 L13.2578906,19.67475 L13.2578906,19.67475 Z" id="路径" fill="#0FBCC0"></path>
                <path d="M19.6113281,8.14842188 C19.1165651,8.0243895 18.730243,7.63808538 18.6061875,7.14332812 L18.5851406,7.05895312 L18.564,7.14332812 C18.4401064,7.63821071 18.0536655,8.02459749 17.5587656,8.14842188 L17.4747188,8.16965625 L17.5587656,8.19103125 C18.0536607,8.31468588 18.4401376,8.70100061 18.564,9.19584375 L18.5851406,9.28026562 L18.6061875,9.19584375 C18.7302493,8.70114725 19.1165911,8.31493148 19.6113281,8.19103125 L19.6958438,8.16965625 L19.6113281,8.14842188 L19.6113281,8.14842188 Z" id="路径" fill="#0FBCC0"></path>
                <path d="M6.69792187,13.5669844 C6.19983106,13.4419292 5.81092273,13.0530029 5.68589062,12.5549062 L5.6645625,12.4698281 L5.64342187,12.5549062 C5.51836043,13.0530871 5.12931921,13.4420383 4.63110937,13.5669844 L4.54621875,13.5882187 L4.63110937,13.6095 C5.12935628,13.7343807 5.51842583,14.1233602 5.64342187,14.6215781 L5.6645625,14.7066094 L5.68589062,14.6215781 C5.81084802,14.1234392 6.19978871,13.7344805 6.69792187,13.6095 L6.78314062,13.5882187 L6.69792187,13.5669844 L6.69792187,13.5669844 Z M4.98051562,11.3977969 C4.58383351,11.2982143 4.27410638,10.9884692 4.17454687,10.5917812 L4.15757812,10.524 L4.14075,10.5917812 C4.04117851,10.9885465 3.73133524,11.2983177 3.33454687,11.3977969 L3.267,11.4147188 L3.33454687,11.4316406 C3.73135643,11.5310824 4.04121589,11.8408698 4.14075,12.2376562 L4.15757812,12.3053906 L4.17454687,12.2376562 C4.27407836,11.8409525 4.58381763,11.5311952 4.98051562,11.4316406 L5.04839062,11.4147187 L4.98051562,11.3977969 L4.98051562,11.3977969 Z" id="形状" fill="#FF7083"></path>
            </g>
        </g>
    </g>
</svg>