<?xml version="1.0" encoding="UTF-8"?>
<svg width="64px" height="34px" viewBox="0 0 64 34" version="1.1" xmlns="http://www.w3.org/2000/svg" xmlns:xlink="http://www.w3.org/1999/xlink">
    <title>形状</title>
    <g id="页面-1" stroke="none" stroke-width="1" fill="none" fill-rule="evenodd">
        <g id="assets" transform="translate(-1574.000000, -491.000000)" fill-rule="nonzero">
            <rect id="矩形" fill="#000000" opacity="0" x="1574" y="476" width="64" height="64"></rect>
            <path d="M1621.75,491.75 L1590.25,491.75 C1581.275,491.75 1574,499.025 1574,508 C1574,516.975 1581.275,524.25 1590.25,524.25 L1621.75,524.25 C1630.725,524.25 1638,516.975 1638,508 C1638,499.025 1630.725,491.75 1621.75,491.75 Z M1621.25,522 C1613.51875,522 1607.25,515.73125 1607.25,508 C1607.25,500.26875 1613.51875,494 1621.25,494 C1628.98125,494 1635.25,500.26875 1635.25,508 C1635.25,515.73125 1628.98125,522 1621.25,522 Z" id="形状" fill="#0EBCC0"></path>
            <path d="M1621.25,522 C1613.51875,522 1607.25,515.73125 1607.25,508 C1607.25,500.26875 1613.51875,494 1621.25,494 C1628.98125,494 1635.25,500.26875 1635.25,508 C1635.25,515.73125 1628.98125,522 1621.25,522 Z" id="路径" fill="#FFFFFF"></path>
        </g>
    </g>
</svg>