<?xml version="1.0" encoding="UTF-8"?>
<svg width="64px" height="34px" viewBox="0 0 64 34" version="1.1" xmlns="http://www.w3.org/2000/svg" xmlns:xlink="http://www.w3.org/1999/xlink">
    <title>形状</title>
    <g id="页面-1" stroke="none" stroke-width="1" fill="none" fill-rule="evenodd">
        <g id="assets" transform="translate(-1670.000000, -491.000000)" fill-rule="nonzero">
            <path d="M1717.75,491.75 L1686.25,491.75 C1677.275,491.75 1670,499.025 1670,508 C1670,516.975 1677.275,524.25 1686.25,524.25 L1717.75,524.25 C1726.725,524.25 1734,516.975 1734,508 C1734,499.025 1726.725,491.75 1717.75,491.75 Z M1686.25,522 C1678.51875,522 1672.25,515.73125 1672.25,508 C1672.25,500.26875 1678.51875,494 1686.25,494 C1693.98125,494 1700.25,500.26875 1700.25,508 C1700.25,515.73125 1693.98125,522 1686.25,522 Z" id="形状" fill="#000000"></path>
            <path d="M1686.25,522 C1678.51875,522 1672.25,515.73125 1672.25,508 C1672.25,500.26875 1678.51875,494 1686.25,494 C1693.98125,494 1700.25,500.26875 1700.25,508 C1700.25,515.73125 1693.98125,522 1686.25,522 Z" id="路径" fill="#FFFFFF"></path>
        </g>
    </g>
</svg>