<?xml version="1.0" encoding="UTF-8"?>
<svg width="16px" height="16px" viewBox="0 0 16 16" version="1.1" xmlns="http://www.w3.org/2000/svg" xmlns:xlink="http://www.w3.org/1999/xlink">
    <title>history</title>
    <g id="页面-1" stroke="none" stroke-width="1" fill="none" fill-rule="evenodd">
        <g id="assets" transform="translate(-1049.000000, -544.000000)" fill-rule="nonzero">
            <g id="history" transform="translate(1049.000000, 544.000000)">
                <rect id="矩形" fill="#000000" opacity="0" x="0" y="0" width="16" height="16"></rect>
                <path d="M14.8565714,8 C14.8565714,11.7765714 11.776,14.8571524 7.99942858,14.8571524 C5.95984443,14.8605454 4.02510981,13.9537302 2.72285714,12.384 C2.63402085,12.2689041 2.64151601,12.1064283 2.74057142,12 L3.964,10.768 C4.02647218,10.7153359 4.10572286,10.6867571 4.18742858,10.6874286 C4.26762228,10.6932239 4.34185876,10.7318931 4.39257142,10.7942857 C5.25079136,11.9180444 6.58544343,12.5754324 7.99942858,12.5708571 C10.5171429,12.5708571 12.5708572,10.5171429 12.5708571,7.99942858 C12.5708571,5.4817143 10.5171429,3.428 7.99942858,3.428 C6.84607403,3.42674079 5.73539609,3.86410725 4.89257142,4.65142858 L6.116,5.88342858 C6.28227071,6.04247487 6.3321726,6.28811067 6.24114286,6.49942858 C6.15396697,6.71411492 5.94599175,6.85509595 5.71428572,6.85657142 L1.71428572,6.85657142 C1.4017143,6.85657142 1.14285714,6.59771428 1.14285714,6.28514286 L1.14285714,2.28514286 C1.14285714,2.05314286 1.28571428,1.84742858 1.5,1.75828572 C1.71131791,1.66725597 1.95695371,1.71715787 2.116,1.88342858 L3.27657142,3.03542858 C4.53542856,1.848 6.24057142,1.14228572 8,1.14228572 C11.7765714,1.14228572 14.8571429,4.22285714 14.8571429,7.99942858 L14.8565714,8 Z M9.14228572,5.42857142 L9.14228572,9.42857142 C9.14228572,9.58914284 9.01714286,9.71430683 8.85657142,9.71430683 L5.99942858,9.71430683 C5.92337129,9.71521524 5.85015742,9.68541187 5.79637278,9.63162722 C5.74258813,9.57784258 5.71278476,9.50462871 5.71369317,9.42857142 L5.71369317,8.85714286 C5.71369317,8.69657144 5.83885714,8.57142858 5.99942858,8.57142858 L7.99942858,8.57142858 L7.99942858,5.42857142 C7.99942858,5.268 8.12457144,5.14285714 8.28514286,5.14285714 L8.85657142,5.14285714 C9.01714284,5.14285714 9.14228572,5.268 9.14228572,5.42857142 Z" id="形状" fill="#060608"></path>
            </g>
        </g>
    </g>
</svg>