<?xml version="1.0" encoding="UTF-8"?>
<svg width="16px" height="16px" viewBox="0 0 16 16" version="1.1" xmlns="http://www.w3.org/2000/svg" xmlns:xlink="http://www.w3.org/1999/xlink">
    <title>close</title>
    <g id="web-v3" stroke="none" stroke-width="1" fill="none" fill-rule="evenodd">
        <g id="assets" transform="translate(-1422.000000, -544.000000)" fill="#000000" fill-rule="nonzero">
            <g id="close" transform="translate(1422.000000, 544.000000)">
                <rect id="矩形" opacity="0" x="0" y="0" width="16" height="16"></rect>
                <path d="M9.34055511,7.99200542 L12.7119493,4.62059523 C13.0843528,4.24819172 13.0843528,3.64442508 12.7119653,3.27203756 C12.3395778,2.89965005 11.7357951,2.89963405 11.3634076,3.27203756 L7.99199742,6.64344775 L4.62058723,3.27203756 C4.24818372,2.89963405 3.64440109,2.89963405 3.27202956,3.27203756 C2.89964205,3.64442508 2.89962605,4.24820772 3.27202956,4.62061123 L6.64342375,7.99200542 L3.27204555,11.3634156 C2.89964203,11.7358191 2.89964203,12.3395858 3.27204555,12.7119733 C3.64443306,13.0843768 4.24819972,13.0843768 4.62060322,12.7119733 L7.99198142,9.34059508 L11.3633756,12.7119893 C11.7357951,13.0843928 12.3395617,13.0843768 12.7119493,12.7119893 C13.0843528,12.3395857 13.0843528,11.7358191 12.7119493,11.3634316 L9.34055511,7.99200542 Z" id="路径"></path>
            </g>
        </g>
    </g>
</svg>