<?xml version="1.0" encoding="UTF-8"?>
<svg width="16px" height="16px" viewBox="0 0 16 16" version="1.1" xmlns="http://www.w3.org/2000/svg" xmlns:xlink="http://www.w3.org/1999/xlink">
    <title>编组 34</title>
    <g id="页面-1" stroke="none" stroke-width="1" fill="none" fill-rule="evenodd">
        <g id="assets" transform="translate(-1193.000000, -509.000000)" fill="#000000" fill-rule="nonzero">
            <g id="copy" transform="translate(1192.856487, 509.000000)">
                <rect id="矩形" opacity="0" x="0" y="0" width="16" height="16"></rect>
                <path d="M9,6 C9.55228475,6 10,6.44771525 10,7 L10,12.3333333 C10,12.8856181 9.55228475,13.3333333 9,13.3333333 L3.66666667,13.3333333 C3.11438192,13.3333333 2.66666667,12.8856181 2.66666667,12.3333333 L2.66666667,7 C2.66666667,6.44771525 3.11438192,6 3.66666667,6 L9,6 Z M9,7 L3.66666667,7 L3.66666667,12.3333333 L9,12.3333333 L9,7 Z M8,10 L8,11 L4.66666667,11 L4.66666667,10 L8,10 Z M12.3333333,2.66666667 C12.8856181,2.66666667 13.3333333,3.11438192 13.3333333,3.66666667 L13.3333333,9 C13.3333333,9.55228475 12.8856181,10 12.3333333,10 L10.6666667,10 L10.6666667,9 L12.3333333,9 L12.3333333,3.66666667 L7,3.66666667 L7,5.33333333 L6,5.33333333 L6,3.66666667 C6,3.11438192 6.44771525,2.66666667 7,2.66666667 L12.3333333,2.66666667 Z M8,8.33333333 L8,9.33333333 L4.66666667,9.33333333 L4.66666667,8.33333333 L8,8.33333333 Z" id="形状"></path>
            </g>
        </g>
    </g>
</svg>