<?xml version="1.0" encoding="UTF-8"?>
<svg width="16px" height="16px" viewBox="0 0 16 16" version="1.1" xmlns="http://www.w3.org/2000/svg" xmlns:xlink="http://www.w3.org/1999/xlink">
    <title>dollar</title>
    <g id="页面-1" stroke="none" stroke-width="1" fill="none" fill-rule="evenodd">
        <g id="assets" transform="translate(-1327.000000, -508.000000)" fill-rule="nonzero">
            <g id="dollar" transform="translate(1326.856487, 508.000000)">
                <rect id="矩形" fill="#000000" opacity="0" x="0" y="0" width="16" height="16"></rect>
                <path d="M8,1.33333333 C4.31810166,1.33333333 1.33333333,4.31810166 1.33333333,8 C1.33333333,11.6818983 4.31810166,14.6666667 8,14.6666667 C11.6818983,14.6666667 14.6666667,11.6818983 14.6666667,8 C14.6666667,6.23189007 13.9642877,4.53619731 12.7140452,3.28595479 C11.4638027,2.03571226 9.76810993,1.33333333 8,1.33333333 Z M10,6.5 C10,6.5884055 9.96488105,6.67319013 9.90236893,6.73570226 C9.8398568,6.79821438 9.75507217,6.83333333 9.66666667,6.83333333 L9.16666667,6.83333333 C9.07826117,6.83333333 8.99347653,6.79821439 8.93096441,6.73570226 C8.86845228,6.67319014 8.83333333,6.5884055 8.83333333,6.5 L8.83333333,5.83333333 L7.16666667,5.83333333 L7.16666667,6.42 C7.16389299,6.46966497 7.18648104,6.51735085 7.22666667,6.54666667 L9.51333333,8.43333333 C9.82054312,8.68585568 9.99899995,9.06232627 10,9.46 L10,10 C10,10.353622 9.85952421,10.6927605 9.60947571,10.942809 C9.35942721,11.1928575 9.02028866,11.3333333 8.66666667,11.3333333 L8.66666667,11.6666667 C8.66666667,11.7550722 8.63154772,11.8398568 8.56903559,11.9023689 C8.50652347,11.9648811 8.42173883,12 8.33333333,12 L7.66666667,12 C7.57826117,12 7.49347653,11.9648811 7.43096441,11.9023689 C7.36845228,11.8398568 7.33333333,11.7550722 7.33333333,11.6666667 L7.33333333,11.3333333 C6.97971134,11.3333333 6.64057279,11.1928575 6.39052429,10.942809 C6.14047579,10.6927605 6,10.353622 6,10 L6,9.5 C6,9.31590509 6.14923841,9.16666667 6.33333333,9.16666667 L6.83333333,9.16666667 C6.92173883,9.16666667 7.00652347,9.20178561 7.06903559,9.26429774 C7.13154772,9.32680986 7.16666667,9.4115945 7.16666667,9.5 L7.16666667,10.1666667 L8.83333333,10.1666667 L8.83333333,9.58 C8.83610701,9.53033503 8.81351896,9.48264915 8.77333333,9.45333333 L6.48666667,7.56666667 C6.17945688,7.31414432 6.00100005,6.93767373 6,6.54 L6,6 C6,5.26362034 6.59695366,4.66666667 7.33333333,4.66666667 L7.33333333,4.33333333 C7.33333333,4.24492783 7.36845228,4.16014319 7.43096441,4.09763107 C7.49347653,4.03511894 7.57826117,4 7.66666667,4 L8.33333333,4 C8.42173883,4 8.50652347,4.03511894 8.56903559,4.09763107 C8.63154772,4.16014319 8.66666667,4.24492783 8.66666667,4.33333333 L8.66666667,4.66666667 C9.40304634,4.66666667 10,5.26362034 10,6 L10,6.5 Z" id="形状" fill="#0C0C0E"></path>
            </g>
        </g>
    </g>
</svg>