<?xml version="1.0" encoding="UTF-8"?>
<svg width="16px" height="16px" viewBox="0 0 16 16" version="1.1" xmlns="http://www.w3.org/2000/svg" xmlns:xlink="http://www.w3.org/1999/xlink">
    <title>info</title>
    <g id="页面-1" stroke="none" stroke-width="1" fill="none" fill-rule="evenodd">
        <g id="assets" transform="translate(-1232.000000, -509.000000)" fill="#000000" fill-rule="nonzero">
            <g id="编组-34" transform="translate(1192.856487, 509.000000)">
                <g id="info" transform="translate(40.000000, 1.000000)">
                    <rect id="矩形" opacity="0" x="0" y="0" width="14" height="14"></rect>
                    <path d="M7,13.097875 C3.6378125,13.097875 0.902125,10.362625 0.902125,7 C0.902125,3.6378125 3.6378125,0.902125 7,0.902125 C10.362625,0.902125 13.097875,3.637375 13.097875,7 C13.097875,10.362625 10.362625,13.097875 7,13.097875 Z M7,1.777125 C4.1199375,1.777125 1.777125,4.1199375 1.777125,7 C1.777125,9.879625 4.1199375,12.222875 7,12.222875 C9.879625,12.222875 12.222875,9.8800625 12.222875,7 C12.222875,4.1199375 9.879625,1.777125 7,1.777125 Z M6.34375,4.15625 C6.34375,4.51868687 6.63756313,4.8125 7,4.8125 C7.36243687,4.8125 7.65625,4.51868687 7.65625,4.15625 C7.65625,3.79381313 7.36243687,3.5 7,3.5 C6.63756313,3.5 6.34375,3.79381313 6.34375,4.15625 Z M7,10.5 C6.7585,10.5 6.5625,10.3044375 6.5625,10.0625 L6.5625,6.125 C6.5625,5.8835 6.7585,5.6875 7,5.6875 C7.2415,5.6875 7.4375,5.8835 7.4375,6.125 L7.4375,10.0625 C7.4375,10.3044375 7.2415,10.5 7,10.5 Z" id="形状"></path>
                </g>
            </g>
        </g>
    </g>
</svg>