<?xml version="1.0" encoding="UTF-8"?>
<svg width="16px" height="16px" viewBox="0 0 16 16" version="1.1" xmlns="http://www.w3.org/2000/svg" xmlns:xlink="http://www.w3.org/1999/xlink">
    <title>link</title>
    <g id="页面-1" stroke="none" stroke-width="1" fill="none" fill-rule="evenodd">
        <g id="assets" transform="translate(-1423.000000, -508.000000)" fill-rule="nonzero">
            <g id="link" transform="translate(1422.856487, 508.000000)">
                <rect id="矩形" fill="#000000" opacity="0" x="0" y="0" width="16" height="16"></rect>
                <path d="M8.96875,10.396875 C8.9203125,10.3484375 8.840625,10.3484375 8.7921875,10.396875 L6.9765625,12.2125 C6.1359375,13.053125 4.7171875,13.1421875 3.7890625,12.2125 C2.859375,11.2828125 2.9484375,9.865625 3.7890625,9.025 L5.6046875,7.209375 C5.653125,7.1609375 5.653125,7.08125 5.6046875,7.0328125 L4.9828125,6.4109375 C4.934375,6.3625 4.8546875,6.3625 4.80625,6.4109375 L2.990625,8.2265625 C1.66875,9.5484375 1.66875,11.6875 2.990625,13.0078125 C4.3125,14.328125 6.4515625,14.3296875 7.771875,13.0078125 L9.5875,11.1921875 C9.6359375,11.14375 9.6359375,11.0640625 9.5875,11.015625 L8.96875,10.396875 Z M13.009375,2.990625 C11.6875,1.66875 9.5484375,1.66875 8.228125,2.990625 L6.4109375,4.80625 C6.3625,4.8546875 6.3625,4.934375 6.4109375,4.9828125 L7.03125,5.603125 C7.0796875,5.6515625 7.159375,5.6515625 7.2078125,5.603125 L9.0234375,3.7875 C9.8640625,2.946875 11.2828125,2.8578125 12.2109375,3.7875 C13.140625,4.7171875 13.0515625,6.134375 12.2109375,6.975 L10.3953125,8.790625 C10.346875,8.8390625 10.346875,8.91875 10.3953125,8.9671875 L11.0171875,9.5890625 C11.065625,9.6375 11.1453125,9.6375 11.19375,9.5890625 L13.009375,7.7734375 C14.3296875,6.4515625 14.3296875,4.3125 13.009375,2.990625 L13.009375,2.990625 Z M9.5328125,5.8171875 C9.484375,5.76875 9.4046875,5.76875 9.35625,5.8171875 L5.8171875,9.3546875 C5.76875,9.403125 5.76875,9.4828125 5.8171875,9.53125 L6.4359375,10.15 C6.484375,10.1984375 6.5640625,10.1984375 6.6125,10.15 L10.15,6.6125 C10.1984375,6.5640625 10.1984375,6.484375 10.15,6.4359375 L9.5328125,5.8171875 Z" id="形状" fill="#0C0C0E"></path>
            </g>
        </g>
    </g>
</svg>