<?xml version="1.0" encoding="UTF-8"?>
<svg width="16px" height="16px" viewBox="0 0 16 16" version="1.1" xmlns="http://www.w3.org/2000/svg" xmlns:xlink="http://www.w3.org/1999/xlink">
    <title>message_fill</title>
    <g id="页面-1" stroke="none" stroke-width="1" fill="none" fill-rule="evenodd">
        <g id="assets" transform="translate(-1144.000000, -509.000000)" fill-rule="nonzero">
            <g id="message_fill" transform="translate(1144.856487, 509.000000)">
                <rect id="矩形" fill="#000000" opacity="0" x="0" y="0" width="16" height="16"></rect>
                <path d="M7.5,1 C3.91571429,1 1,3.69130776 1,6.99957146 C1,8.81994143 1.91464286,10.5313192 3.52525,11.7087351 L4.74632143,12.521677 C4.69292857,12.8896507 4.47425,13.6855939 4.26114286,14.3330476 C4.19939286,14.5215342 4.24767857,14.7315192 4.38371429,14.8670095 C4.471,14.9540033 4.58428571,15 4.69896429,15 C4.76303571,15 4.82710714,14.986001 4.88792857,14.9570031 C5.41628571,14.7035212 7.02735714,13.87958 7.60957143,12.998143 C11.1437143,12.9436469 14,10.2733376 14,6.99957146 C14,3.69130776 11.0842857,1 7.5,1 Z M8.50629474,8 L5.49370526,8 C5.22117996,8 5,7.776 5,7.5 C5,7.224 5.22117996,7 5.49370526,7 L8.50629474,7 C8.77931375,7 9,7.224 9,7.5 C9,7.776 8.77931375,8 8.50629474,8 Z M9.49994999,6 L5.50005001,6 C5.2240224,6 5,5.776 5,5.5 C5,5.224 5.2240224,5 5.50005001,5 L9.49994999,5 C9.77647765,5 10,5.224 10,5.5 C10,5.776 9.77647765,6 9.49994999,6 Z" id="形状" fill="#060608"></path>
            </g>
        </g>
    </g>
</svg>