<?xml version="1.0" encoding="UTF-8"?>
<svg width="16px" height="16px" viewBox="0 0 16 16" version="1.1" xmlns="http://www.w3.org/2000/svg" xmlns:xlink="http://www.w3.org/1999/xlink">
    <title>编组 2</title>
    <g id="页面-1" stroke="none" stroke-width="1" fill="none" fill-rule="evenodd">
        <g id="assets" transform="translate(-1000.000000, -544.000000)">
            <g id="编组-2" transform="translate(1000.000000, 544.000000)">
                <rect id="矩形" x="0" y="0" width="16" height="16"></rect>
                <g id="icons_organization" transform="translate(1.000000, 1.000000)" fill-rule="nonzero">
                    <rect id="矩形" fill="#000000" opacity="0" x="0" y="0" width="14" height="14"></rect>
                    <path d="M11.0831379,11.6667709 C12.0496146,11.6667709 12.8330988,10.8832692 12.8330988,9.91677091 C12.8330988,8.9502726 12.0496146,8.16677092 11.0831379,8.16677092 C10.1166611,8.16677092 9.33317697,8.95027261 9.33317697,9.91677091 C9.33317697,10.3808998 9.51754732,10.8260191 9.84572865,11.1542078 C10.17391,11.4823964 10.6190194,11.6667709 11.0831379,11.6667709 L11.0831379,11.6667709 Z M2.9165494,12.8333855 C3.88302612,12.8333855 4.66651029,12.0498838 4.66651029,11.0833855 C4.66651029,10.1168871 3.8830261,9.33338546 2.91654939,9.33338546 C1.95007267,9.33338546 1.16658849,10.1168872 1.16658849,11.0833855 C1.16658849,11.5475143 1.35095884,11.9926337 1.67914017,12.3208223 C2.00732151,12.649011 2.45243091,12.8333855 2.9165494,12.8333855 L2.9165494,12.8333855 Z M6.99984364,5.83338546 C7.94360311,5.83344871 8.7944691,5.26497769 9.15567404,4.39305631 C9.51687897,3.52113493 9.31728747,2.5174786 8.64997111,1.85010262 C7.98265476,1.18272663 6.97903422,0.983063411 6.10710812,1.34421798 C5.23518201,1.70537255 4.66666667,2.55621945 4.66666667,3.5 C4.66666667,4.78863214 5.71124029,5.83329911 6.99984364,5.83338546 Z M9.10004691,7.77758667 L8.38377002,6.71557809 C7.55536236,7.07091275 6.62206417,7.09420094 5.7769662,6.78062456 L4.64837276,8.73624017 C5.39409012,9.28568816 5.83399304,10.1570962 5.83325516,11.0833855 C5.83325516,12.6939108 4.52750788,14 2.91670575,14 C1.30590362,14 0,12.6942236 0,11.0833855 C0,9.47254736 1.30574727,8.16677091 2.9165494,8.16677091 C3.14174003,8.16663268 3.36619343,8.19249944 3.58544975,8.24385722 L4.76767405,6.19551913 C3.96375437,5.5312136 3.49872985,4.54241945 3.49976546,3.49953092 C3.49992182,1.56705682 5.06694364,0 6.99984364,0 C8.93274365,0 10.4997655,1.56705682 10.4997655,3.5 C10.5009005,4.48192449 10.088434,5.41892023 9.36351046,6.08121873 L10.098394,7.17043425 C10.4144637,7.05725126 10.7477279,6.99958998 11.0834506,7 C12.69394,7 14,8.30577645 14,9.91661455 C14,11.5274526 12.69394,12.8333855 11.0831379,12.8333855 C9.47233577,12.8333855 8.16658848,11.527609 8.16658848,9.91677091 C8.16542859,9.10465286 8.50387614,8.32904076 9.10004691,7.77758667 Z" id="形状" fill="#060608"></path>
                </g>
            </g>
        </g>
    </g>
</svg>
