<?xml version="1.0" encoding="UTF-8"?>
<svg width="37px" height="32px" viewBox="0 0 37 32" version="1.1" xmlns="http://www.w3.org/2000/svg" xmlns:xlink="http://www.w3.org/1999/xlink">
    <title>编组 16</title>
    <g id="页面-1" stroke="none" stroke-width="1" fill="none" fill-rule="evenodd">
        <g id="assets" transform="translate(-1056.000000, -891.000000)" fill-rule="nonzero">
            <g id="编组-16" transform="translate(1056.000000, 891.000000)">
                <path d="M33.0634068,7.57894737 C31.6665431,7.57894737 30.3931574,7.21724309 29.2786235,6.50384858 C28.0998888,5.74967804 25.6689786,6.18621049 25.4866837,6.5710297 L25.2631579,7.14521393 L25.8931272,0.497032317 L25.9168275,0.473484175 C25.9686779,0.420558775 27.2312013,-0.810112352 30.5390232,0.920723336 C33.0496761,2.23407182 35.1019959,1.61509919 35.8678481,1.28802565 C35.9474788,1.25375369 36.0380388,1.26559301 36.1075527,1.3193633 C36.1770667,1.3731336 36.2157543,1.46126974 36.2099556,1.55265205 L35.8636548,6.90961845 C35.8571797,7.01823841 35.7888278,7.11146578 35.6915572,7.14434811 C34.840926,7.42910941 33.9549427,7.57561842 33.0634068,7.57894737 L33.0634068,7.57894737 Z" id="路径" fill="#0FBCC0"></path>
                <path d="M25.6842105,0 C25.4517802,0.000254316088 25.2634248,0.179698162 25.2631579,0.401131601 L25.2631579,13.9146579 C25.2631579,14.1361967 25.4516696,14.3157895 25.6842105,14.3157895 C25.9167515,14.3157895 26.1052632,14.1361967 26.1052632,13.9146579 L26.1052632,0.401131601 C26.1049962,0.179698162 25.9166408,0.000254316088 25.6842105,0 Z" id="路径" fill="#3F3D56"></path>
                <g id="编组-4" transform="translate(13.466571, 18.105263) scale(-1, 1) translate(-13.466571, -18.105263) translate(-0.000000, 4.210526)">
                    <path d="M26.7412719,20.1482217 C27.3232441,19.6606507 26.5367584,17.7616336 24.9846069,15.9066483 C23.4324555,14.051663 21.7024065,12.9431547 21.1204343,13.4307257 C20.5384622,13.9182967 21.3249479,15.8173137 22.8770994,17.672299 C24.4292508,19.5272844 26.1592998,20.6357927 26.7412719,20.1482217 Z" id="椭圆形" fill="#2F2E41"></path>
                    <path d="M22.9613003,18.0380594 C24.5083319,13.4513527 22.0000983,8.49367217 17.3590039,6.96476986 C12.7179095,5.43586755 7.70144217,7.91470771 6.15441058,12.5014143 C4.607379,17.0881209 7.11561252,22.0458015 11.756707,23.5747038 C16.3978014,25.1036061 21.4142687,22.624766 22.9613003,18.0380594 Z" id="椭圆形" fill="#2F2E41"></path>
                    <rect id="矩形" fill="#2F2E41" x="15.8027067" y="22" width="2.63615561" height="4.77631579"></rect>
                    <rect id="矩形" fill="#2F2E41" x="10.2374893" y="22" width="2.63615561" height="4.77631579"></rect>
                    <ellipse id="椭圆形" fill="#2F2E41" cx="16.242066" cy="26.8486842" rx="2.19679634" ry="1"></ellipse>
                    <ellipse id="椭圆形" fill="#2F2E41" cx="10.6768486" cy="26.8486842" rx="2.19679634" ry="1"></ellipse>
                    <path d="M11.8260371,4.35738732 C12.6090826,1.20363202 16.0655785,-0.65228384 19.5463342,0.212079704 C23.0270898,1.07644325 25.2140265,4.33378761 24.430981,7.48754494 C23.6479355,10.6413023 21.0500412,10.6514822 17.5692836,9.78710235 C14.088526,8.92272252 11.0429875,7.51115076 11.8260371,4.35738732 Z" id="路径" fill="#4FCDD0"></path>
                    <ellipse id="椭圆形" fill="#2F2E41" transform="translate(4.577972, 11.166307) rotate(-64.625740) translate(-4.577972, -11.166307) " cx="4.57797151" cy="11.1663066" rx="1.3756406" ry="4.41432882"></ellipse>
                    <ellipse id="椭圆形" fill="#FFFFFF" cx="13.1665511" cy="13.4605263" rx="2.92906178" ry="2.89473684"></ellipse>
                    <ellipse id="椭圆形" fill="#3F3D56" cx="11.9216998" cy="12.2302632" rx="1" ry="1"></ellipse>
                    <ellipse id="椭圆形" fill="#FFFFFF" cx="13.020098" cy="19.5394737" rx="1.3180778" ry="1.30263158"></ellipse>
                </g>
            </g>
        </g>
    </g>
</svg>