<?xml version="1.0" encoding="UTF-8"?>
<svg width="16px" height="16px" viewBox="0 0 16 16" version="1.1" xmlns="http://www.w3.org/2000/svg" xmlns:xlink="http://www.w3.org/1999/xlink">
    <title>introduction-fill</title>
    <g id="页面-1" stroke="none" stroke-width="1" fill="none" fill-rule="evenodd">
        <g id="assets" transform="translate(-953.000000, -508.000000)" fill-rule="nonzero">
            <g id="introduction-fill" transform="translate(952.856487, 508.000000)">
                <rect id="矩形" fill="#000000" opacity="0" x="0" y="0" width="16" height="16"></rect>
                <path d="M14.25,1.66666667 L1.75,1.66666667 C1.70397627,1.66666667 1.66666667,1.70397627 1.66666667,1.75 L1.66666667,14.25 C1.66666667,14.2960237 1.70397627,14.3333333 1.75,14.3333333 L14.25,14.3333333 C14.2960237,14.3333333 14.3333333,14.2960237 14.3333333,14.25 L14.3333333,1.75 C14.3333333,1.70397627 14.2960237,1.66666667 14.25,1.66666667 Z M3.91666667,4.08333333 C3.91666667,4.0373096 3.95397627,4 4,4 L12,4 C12.0460237,4 12.0833333,4.0373096 12.0833333,4.08333333 L12.0833333,5.41666667 C12.0833333,5.4626904 12.0460237,5.5 12,5.5 L4,5.5 C3.95397627,5.5 3.91666667,5.4626904 3.91666667,5.41666667 L3.91666667,4.08333333 Z M7.41666667,11.9166667 C7.41666667,11.938768 7.40788693,11.9599642 7.3922589,11.9755922 C7.37663087,11.9912203 7.3554347,12 7.33333333,12 L4.00416667,12 C3.9820653,12 3.96086913,11.9912203 3.9452411,11.9755922 C3.92961307,11.9599642 3.92083333,11.938768 3.92083333,11.9166667 L3.92083333,6.75 C3.92083333,6.72789862 3.92961307,6.70670246 3.9452411,6.69107443 C3.96086913,6.6754464 3.9820653,6.66666667 4.00416667,6.66666667 L7.33333333,6.66666667 C7.3554347,6.66666667 7.37663087,6.6754464 7.3922589,6.69107443 C7.40788693,6.70670246 7.41666667,6.72789862 7.41666667,6.75 L7.41666667,11.9166667 Z M12.0833333,11.9166667 C12.0833619,11.9395093 12.0740125,11.9613622 12.0574713,11.9771157 C12.0409301,11.9928693 12.0186474,12.0011422 11.9958333,12 L8.67083333,12 C8.6248096,12 8.5875,11.9626904 8.5875,11.9166667 L8.5875,10 C8.5875,9.97789863 8.59627974,9.95670247 8.61190777,9.94107444 C8.6275358,9.92544641 8.64873196,9.91666667 8.67083333,9.91666667 L12,9.91666667 C12.022814,9.91552452 12.0450968,9.92379741 12.061638,9.93955094 C12.0781792,9.95530447 12.0875,9.9771574 12.0875,10 L12.0833333,11.9166667 Z M12.0833334,8.66666667 C12.0833334,8.68950928 12.0740125,8.7113622 12.0574713,8.72711573 C12.0409301,8.74286926 12.0186474,8.75114215 11.9958333,8.75 L8.67083333,8.75 C8.6248096,8.75 8.5875,8.7126904 8.5875,8.66666667 L8.5875,6.75 C8.5875,6.70397627 8.6248096,6.66666667 8.67083333,6.66666667 L12,6.66666667 C12.0460237,6.66666667 12.0833334,6.70397627 12.0833334,6.75 L12.0833334,8.66666667 Z" id="形状" fill="#060608"></path>
            </g>
        </g>
    </g>
</svg>