<?xml version="1.0" encoding="UTF-8"?>
<svg width="16px" height="16px" viewBox="0 0 16 16" version="1.1" xmlns="http://www.w3.org/2000/svg" xmlns:xlink="http://www.w3.org/1999/xlink">
    <title>calendar</title>
    <g id="页面-1" stroke="none" stroke-width="1" fill="none" fill-rule="evenodd">
        <g id="assets" transform="translate(-1279.000000, -508.000000)" fill="#000000" fill-rule="nonzero">
            <g id="calendar" transform="translate(1278.856487, 508.000000)">
                <rect id="矩形" opacity="0" x="0" y="0" width="16" height="16"></rect>
                <path d="M12.6666667,2.66666667 L12,2.66666667 L12,1.66666667 C12,1.57826117 11.9648811,1.49347653 11.9023689,1.43096441 C11.8398568,1.36845228 11.7550722,1.33333333 11.6666667,1.33333333 L11,1.33333333 C10.9115945,1.33333333 10.8268099,1.36845228 10.7642977,1.43096441 C10.7017856,1.49347653 10.6666667,1.57826117 10.6666667,1.66666667 L10.6666667,2.66666667 L5.33333333,2.66666667 L5.33333333,1.66666667 C5.33333333,1.57826117 5.29821439,1.49347653 5.23570226,1.43096441 C5.17319014,1.36845228 5.0884055,1.33333333 5,1.33333333 L4.33333333,1.33333333 C4.24492783,1.33333333 4.16014319,1.36845228 4.09763107,1.43096441 C4.03511894,1.49347653 4,1.57826117 4,1.66666667 L4,2.66666667 L3.33333333,2.66666667 C2.59695366,2.66666667 2,3.26362034 2,4 L2,12.6666667 C2,13.4030463 2.59695366,14 3.33333333,14 L12.6666667,14 C13.4030463,14 14,13.4030463 14,12.6666667 L14,4 C14,3.26362034 13.4030463,2.66666667 12.6666667,2.66666667 L12.6666667,2.66666667 Z M12.6666667,12.6666667 L3.33333333,12.6666667 L3.33333333,5.33333333 L12.6666667,5.33333333 L12.6666667,12.6666667 Z" id="形状"></path>
            </g>
        </g>
    </g>
</svg>