<?xml version="1.0" encoding="UTF-8"?>
<svg width="16px" height="16px" viewBox="0 0 16 16" version="1.1" xmlns="http://www.w3.org/2000/svg" xmlns:xlink="http://www.w3.org/1999/xlink">
    <title>checkbox_sel</title>
    <g id="页面-1" stroke="none" stroke-width="1" fill="none" fill-rule="evenodd">
        <g id="assets" transform="translate(-1193.000000, -544.000000)" fill="#000000" fill-rule="nonzero">
            <g id="checkbox_sel" transform="translate(1193.000000, 544.000000)">
                <rect id="矩形" opacity="0" x="0" y="0" width="16" height="16"></rect>
                <path d="M8,0 C12.419,0 16,3.581 16,8 C16,12.419 12.417,16 8,16 C3.583,16 0,12.417 0,8 C0,3.583 3.581,0 8,0 Z M6.598,9.304 L4.828,7.609 C4.58053212,7.37217115 4.19046788,7.37217115 3.943,7.609 C3.82734931,7.71972655 3.76194704,7.87288926 3.76194704,8.033 C3.76194704,8.19311074 3.82734931,8.34627345 3.943,8.457 L5.9695,10.398 C6.32105018,10.7347051 6.87544982,10.7347051 7.227,10.398 L7.4835,10.1525 L12.0575,5.7715 C12.1729919,5.66078912 12.238292,5.50773524 12.238292,5.34775 C12.238292,5.18776476 12.1729919,5.03471088 12.0575,4.924 C11.8100321,4.68717115 11.4199679,4.68717115 11.1725,4.924 L6.598,9.304 Z" id="形状"></path>
            </g>
        </g>
    </g>
</svg>