<?xml version="1.0" encoding="UTF-8"?>
<svg width="16px" height="16px" viewBox="0 0 16 16" version="1.1" xmlns="http://www.w3.org/2000/svg" xmlns:xlink="http://www.w3.org/1999/xlink">
    <title>file</title>
    <g id="页面-1" stroke="none" stroke-width="1" fill="none" fill-rule="evenodd">
        <g id="assets" transform="translate(-1471.000000, -509.000000)" fill="#000000" fill-rule="nonzero">
            <g id="file" transform="translate(1470.856487, 509.000000)">
                <rect id="矩形" opacity="0" x="0" y="0" width="16" height="16"></rect>
                <path d="M14.3733988,5.59580605 L12.8119295,5.59580605 L12.8119295,4.48722966 C12.8119295,4.07910636 12.4810179,3.74817873 12.0728626,3.74817873 L10.9415496,3.74817873 L10.9415496,2.27188366 L3.13535423,2.27188366 L3.13535423,3.74817873 L1.69551445,3.74817873 C1.28737517,3.74817873 0.956463531,4.07909037 0.956463531,4.48722966 L0.956463531,12.9862993 C0.956463531,13.3944386 1.28737517,13.7253662 1.69551445,13.7253662 L1.98132067,13.7253662 L12.0508775,13.7253662 L12.0728786,13.7253662 C12.1891038,13.7253662 12.2977182,13.696154 12.3955078,13.6485063 C12.675558,13.5283318 12.9176658,13.2782453 13.0010333,12.9862993 L14.9013609,6.33485694 C15.0178899,5.92671769 14.7815381,5.59580605 14.3733988,5.59580605 Z M10.1714637,3.01093459 L10.1714637,5.59580605 L4.303826,5.59580605 C4.16850975,5.59580605 4.03245798,5.63478762 3.90508834,5.69829656 L3.90508834,3.01093459 L10.1714637,3.01093459 Z M1.71642827,12.0653717 C1.71463748,12.0462646 1.71030441,12.0274934 1.71030441,12.0076348 L1.71030441,5.08842205 C1.71030441,4.75173831 1.99898867,4.47928305 2.35553094,4.47928305 L3.13535422,4.47928305 L3.13535422,7.09915478 L1.71642827,12.0653717 Z M12.0581046,5.59580605 L10.9415656,5.59580605 L10.9415656,4.47929903 L11.4125103,4.47929903 C11.7693884,4.47929903 12.0581046,4.75175431 12.0581046,5.08843803 L12.0581046,5.59580605 Z" id="形状"></path>
            </g>
        </g>
    </g>
</svg>