<?xml version="1.0" encoding="UTF-8"?>
<svg width="18px" height="18px" viewBox="0 0 18 18" version="1.1" xmlns="http://www.w3.org/2000/svg" xmlns:xlink="http://www.w3.org/1999/xlink">
    <title>形状结合</title>
    <g id="页面-1" stroke="none" stroke-width="1" fill="none" fill-rule="evenodd">
        <g id="assets" transform="translate(-898.000000, -506.000000)" fill="#131415" fill-rule="nonzero">
            <path d="M908,506 C912.418278,506 916,509.600156 916,514.041174 C916,518.092086 913.019889,521.443373 909.143099,522.00088 L909.142857,525.401751 C909.142857,525.932986 908.712207,526.363636 908.180972,526.363636 L907.819028,526.363636 C907.287793,526.363636 906.857143,525.932986 906.857143,525.401751 L906.856901,522.00088 C902.980111,521.443373 900,518.092086 900,514.041174 C900,509.600156 903.581722,506 908,506 Z M908,508.297478 C904.844087,508.297478 902.285714,510.869018 902.285714,514.041174 C902.285714,517.21333 904.844087,519.78487 908,519.78487 C911.155913,519.78487 913.714286,517.21333 913.714286,514.041174 C913.714286,510.869018 911.155913,508.297478 908,508.297478 Z" id="形状结合" transform="translate(908.000000, 516.181818) rotate(-45.000000) translate(-908.000000, -516.181818) "></path>
        </g>
    </g>
</svg>