<?xml version="1.0" encoding="UTF-8"?>
<svg width="24px" height="24px" viewBox="0 0 24 24" version="1.1" xmlns="http://www.w3.org/2000/svg" xmlns:xlink="http://www.w3.org/1999/xlink">
    <title>编组 66</title>
    <g id="页面-1" stroke="none" stroke-width="1" fill="none" fill-rule="evenodd">
        <g id="assets" transform="translate(-948.000000, -540.000000)" fill-rule="nonzero">
            <g id="编组-66" transform="translate(948.046875, 540.046875)">
                <path d="M12.0345312,1.953125 C6.46667187,1.953125 1.953125,6.46685937 1.953125,12.0346719 C1.953125,17.6022969 6.46667187,22.1159375 12.0345312,22.1159375 C17.6020156,22.1159375 22.11575,17.6022969 22.11575,12.0346719 C22.11575,6.46685937 17.6020156,1.953125 12.0345312,1.953125 Z" id="路径" fill="#F8F8F9"></path>
                <g id="bag-dollar" transform="translate(3.953125, 3.953125)">
                    <rect id="矩形" fill="#000000" opacity="0" x="0" y="0" width="15.9995" height="15.9995"></rect>
                    <path d="M13.4995781,13.5000781 L13.4995781,8.00024999 C13.4995781,5.79118003 11.7087731,4.00037499 9.49970313,4.00037499 L10.9291585,0.732977094 C11.1166526,0.259491891 10.7761632,0.000499984375 10.4996719,0.000499984375 L7.49976563,0.000499984375 L7.49976563,2.00043749 L6.49979688,0.000499984375 L5.49982813,0.000499984375 C5.22333677,0.000499984375 4.8543483,0.229492828 5.08684104,0.753976438 L6.49979688,4.00037499 C4.29072692,4.00037499 2.49992188,5.79118003 2.49992188,8.00024999 L2.49992188,13.5000781 C1.9999375,14.0000625 1.49995313,14.4480485 1.49995313,15.0000312 C1.49995313,15.552014 1.94793913,16 2.49992188,16 L13.4995781,16 C14.0515609,16 14.4995469,15.552014 14.4995469,15.0000312 C14.4995469,14.4480485 13.9995625,14.0000625 13.4995781,13.5000781 Z" id="路径" fill="#0FBCC0"></path>
                    <path d="M8.48823474,7.05677948 C8.49023468,7.0367801 8.49973438,7.01928065 8.49973438,6.9982813 L8.49973438,6.49829693 C8.49973438,6.22216318 8.27588375,5.99831255 7.99975001,5.99831255 C7.72361626,5.99831255 7.49976563,6.22216318 7.49976563,6.49829693 L7.49976563,6.9982813 C7.49976563,7.01928065 7.50926534,7.0367801 7.51126527,7.05677948 C6.64429237,7.24827349 5.99981251,7.9297522 5.99981251,8.74822662 C5.99981251,9.71469642 6.89528452,10.4981719 7.99975001,10.4981719 C8.55173276,10.4981719 8.99971876,10.8341614 8.99971876,11.2481485 C8.99971876,11.6621356 8.55173276,11.9981251 7.99975001,11.9981251 C7.44776726,11.9981251 6.99978126,11.6621356 6.99978126,11.2481485 C6.99978126,10.9720147 6.77593063,10.7481641 6.49979688,10.7481641 C6.22366314,10.7481641 5.99981251,10.9720147 5.99981251,11.2481485 C5.99981251,12.062623 6.63879254,12.7411018 7.49976563,12.9360957 L7.49976563,13.4980782 C7.49976563,13.7742119 7.72361626,13.9980626 7.99975001,13.9980626 C8.27588375,13.9980626 8.49973438,13.7742119 8.49973438,13.4980782 L8.49973438,12.9360957 C9.36070748,12.7411018 9.99968751,12.062623 9.99968751,11.2481485 C9.99968751,10.2816787 9.10421549,9.49820318 7.99975001,9.49820318 C7.44776726,9.49820318 6.99978126,9.16221368 6.99978126,8.74822662 C6.99978126,8.33423956 7.44776726,7.99825005 7.99975001,7.99825005 C8.55173276,7.99825005 8.99971876,8.33423956 8.99971876,8.74822662 C8.99971876,9.02436036 9.22356939,9.24821099 9.49970313,9.24821099 C9.77583688,9.24821099 9.99968751,9.02436036 9.99968751,8.74822662 C9.99968751,7.9297522 9.35520765,7.24827349 8.48823474,7.05677948 Z" id="路径" fill="#000000"></path>
                    <polygon id="路径" fill="#000000" points="6.28180369 3.49839068 6.49979688 3.99837505 9.49970313 3.99837505 9.71869629 3.49839068"></polygon>
                </g>
                <path d="M11.9533125,0 C5.36217187,0 0,5.36217187 0,11.9532188 C0,18.5441719 5.36217187,23.90625 11.9533125,23.90625 C18.5442656,23.90625 23.90625,18.5441719 23.90625,11.9532188 C23.90625,5.36217187 18.5442656,0 11.9533125,0 Z M11.9533125,23.5233281 C5.57339063,23.5233281 0.3830625,18.333 0.3830625,11.9532187 C0.3830625,5.57334375 5.57339063,0.382921875 11.9533125,0.382921875 C18.3330937,0.382921875 23.5231875,5.57334375 23.5231875,11.9532187 C23.5231875,18.333 18.3330469,23.5233281 11.9533125,23.5233281 Z" id="形状" fill="#F7F7F9"></path>
            </g>
        </g>
    </g>
</svg>