<?xml version="1.0" encoding="UTF-8"?>
<svg width="16px" height="16px" viewBox="0 0 16 16" version="1.1" xmlns="http://www.w3.org/2000/svg" xmlns:xlink="http://www.w3.org/1999/xlink">
    <title>round-how_to_vote-24</title>
    <g id="页面-1" stroke="none" stroke-width="1" fill="none" fill-rule="evenodd">
        <g id="assets" transform="translate(-1049.000000, -509.000000)" fill-rule="nonzero">
            <g id="round-how_to_vote-24" transform="translate(1048.856487, 509.000000)">
                <rect id="矩形" fill="#000000" opacity="0" x="0" y="0" width="16" height="16"></rect>
                <path d="M7.56,10.0133333 C7.82,10.2733333 8.24,10.2733333 8.5,10.0133333 L12.74,5.77333333 C12.8648187,5.64877026 12.9349627,5.47967298 12.9349627,5.30333333 C12.9349627,5.12699368 12.8648187,4.95789639 12.74,4.83333333 L9.44,1.53333333 C9.31847908,1.40618611 9.15061981,1.33371141 8.97474437,1.33243856 C8.79886893,1.33119891 8.62999149,1.40126835 8.50666667,1.52666667 L4.26,5.77333333 C4.13518127,5.89789639 4.06503731,6.06699368 4.06503731,6.24333333 C4.06503731,6.41967298 4.13518127,6.58877026 4.26,6.71333333 L7.56,10.0133333 L7.56,10.0133333 Z M8.97333333,2.94 L11.3333333,5.3 L8.03333333,8.6 L5.67333333,6.24 L8.97333333,2.94 L8.97333333,2.94 Z M13.6066667,10.2733333 L12.1933333,8.86 C12.0733333,8.74 11.9,8.66666667 11.7266667,8.66666667 L11.5466667,8.66666667 L10.2133333,10 L11.4866667,10 L12.6666667,11.3333333 L3.33333333,11.3333333 L4.52,10 L5.88666667,10 L4.55333333,8.66666667 L4.27333333,8.66666667 C4.09333333,8.66666667 3.92666666,8.74 3.8,8.86 L2.38666667,10.2733333 C2.14,10.5266667 2,10.8666667 2,11.22 L2,13.3333333 C2,14.0666667 2.6,14.6666667 3.33333333,14.6666667 L12.6666667,14.6666667 C13.0202887,14.6666667 13.3594272,14.5261909 13.6094757,14.2761424 C13.8595242,14.0260939 14,13.6869553 14,13.3333333 L14,11.22 C14,10.8666667 13.86,10.5266667 13.6066667,10.2733333 L13.6066667,10.2733333 Z" id="形状" fill="#060608"></path>
            </g>
        </g>
    </g>
</svg>