<svg width="16" height="16" viewBox="0 0 16 16" xmlns="http://www.w3.org/2000/svg">
    <g fill="none" fill-rule="evenodd">
        <path fill="#F7F7F9" d="M-646-374h1920V706H-646z"/>
        <g transform="translate(-22 -8)">
            <rect width="120" height="32" rx="16"/>
            <path d="M29.56 18.013c.26.26.68.26.94 0l4.24-4.24a.664.664 0 0 0 0-.94l-3.3-3.3a.65.65 0 0 0-.933-.006l-4.247 4.246a.664.664 0 0 0 0 .94l3.3 3.3zm1.413-7.073 2.36 2.36-3.3 3.3-2.36-2.36 3.3-3.3zm4.634 7.333-1.414-1.413a.672.672 0 0 0-.466-.193h-.18L32.213 18h1.274l1.18 1.333h-9.334L26.52 18h1.367l-1.334-1.333h-.28a.688.688 0 0 0-.473.193l-1.413 1.413a1.36 1.36 0 0 0-.387.947v2.113c0 .734.6 1.334 1.333 1.334h9.334A1.333 1.333 0 0 0 36 21.333V19.22c0-.353-.14-.693-.393-.947z" fill="#858587" fill-rule="nonzero"/>
        </g>
    </g>
</svg>
