<svg width="28" height="32" viewBox="0 0 28 32" fill="none" xmlns="http://www.w3.org/2000/svg">
<path d="M14 0L23.6765 5.09554L14 10.8025L4.32351 5.09554L14 0Z" fill="url(#paint0_linear_0_49)"/>
<path d="M0 7.33774L4.32353 5.0957L14 10.8027V15.2868L0 7.33774Z" fill="url(#paint1_linear_0_49)"/>
<path d="M28 7.33774L23.6765 5.0957L14 10.8027V15.2868L28 7.33774Z" fill="url(#paint2_linear_0_49)"/>
<path d="M14 15.2864L0 7.3374V23.0317L3.91176 25.6814V14.675L14 20.382V15.2864Z" fill="url(#paint3_linear_0_49)"/>
<path d="M14 15.2864L28 7.3374V23.0317L24.0882 25.6814V14.675L14 20.382V15.2864Z" fill="url(#paint4_linear_0_49)"/>
<path d="M14 20.2281V32.0001L24.0883 25.6817V14.6753L14 20.2281Z" fill="url(#paint5_linear_0_49)"/>
<path d="M14 20.2281V32.0001L3.91174 25.6817V14.6753L14 20.2281Z" fill="url(#paint6_linear_0_49)"/>
<path d="M14 15.0826V15.4903L28 7.3374L14 15.0826Z" fill="url(#paint7_linear_0_49)"/>
<path d="M13.7941 15.2866H14.2059L14 27.5159L13.7941 15.2866Z" fill="url(#paint8_linear_0_49)"/>
<path d="M14 15.0826V15.4903L0 7.3374L14 15.0826Z" fill="url(#paint9_linear_0_49)"/>
<defs>
<linearGradient id="paint0_linear_0_49" x1="23.6765" y1="0" x2="23.6765" y2="10.8025" gradientUnits="userSpaceOnUse">
<stop stop-color="#182D43"/>
<stop offset="1" stop-color="#3E5876"/>
</linearGradient>
<linearGradient id="paint1_linear_0_49" x1="13.1406" y1="12.2366" x2="12.1919" y2="5.73756" gradientUnits="userSpaceOnUse">
<stop stop-color="#00ADCE"/>
<stop offset="1" stop-color="#03E1F1"/>
</linearGradient>
<linearGradient id="paint2_linear_0_49" x1="14.8594" y1="12.2366" x2="15.8081" y2="5.73756" gradientUnits="userSpaceOnUse">
<stop stop-color="#00ADCE"/>
<stop offset="1" stop-color="#03E1F1"/>
</linearGradient>
<linearGradient id="paint3_linear_0_49" x1="10.5824" y1="6.42539" x2="-3.8757" y2="11.2018" gradientUnits="userSpaceOnUse">
<stop stop-color="#03E2F2"/>
<stop offset="1" stop-color="#01C2DB"/>
</linearGradient>
<linearGradient id="paint4_linear_0_49" x1="17.4176" y1="6.42539" x2="31.8757" y2="11.2018" gradientUnits="userSpaceOnUse">
<stop stop-color="#00C3D9"/>
<stop offset="1" stop-color="#009AB3"/>
</linearGradient>
<linearGradient id="paint5_linear_0_49" x1="16.3882" y1="15.6109" x2="24.1238" y2="19.4334" gradientUnits="userSpaceOnUse">
<stop stop-color="#182D43"/>
<stop offset="1" stop-color="#3A5776"/>
</linearGradient>
<linearGradient id="paint6_linear_0_49" x1="3.44552" y1="19.1017" x2="9.25098" y2="29.2963" gradientUnits="userSpaceOnUse">
<stop stop-color="#182D43"/>
<stop offset="1" stop-color="#425D7A"/>
</linearGradient>
<linearGradient id="paint7_linear_0_49" x1="35" y1="11.4138" x2="27.9091" y2="23.5902" gradientUnits="userSpaceOnUse">
<stop stop-color="white" stop-opacity="0.01"/>
<stop offset="1" stop-color="white"/>
</linearGradient>
<linearGradient id="paint8_linear_0_49" x1="13.7941" y1="15.2866" x2="13.7941" y2="27.5159" gradientUnits="userSpaceOnUse">
<stop stop-color="white"/>
<stop offset="0.999622" stop-color="white" stop-opacity="0.01"/>
</linearGradient>
<linearGradient id="paint9_linear_0_49" x1="-7" y1="11.4138" x2="0.0908824" y2="23.5902" gradientUnits="userSpaceOnUse">
<stop offset="0.000378162" stop-color="white" stop-opacity="0.01"/>
<stop offset="1" stop-color="white"/>
</linearGradient>
</defs>
</svg>
