<?xml version="1.0" encoding="UTF-8"?>
<svg width="260px" height="129px" viewBox="0 0 260 129" version="1.1" xmlns="http://www.w3.org/2000/svg" xmlns:xlink="http://www.w3.org/1999/xlink">
    <title>编组 14</title>
    <g id="v2" stroke="none" stroke-width="1" fill="none" fill-rule="evenodd" opacity="0.05">
        <g id="编组-14" fill="#1A161F" fill-rule="nonzero">
            <path d="M72,8 C74.209139,8 76,6.209139 76,4 C76,1.790861 74.209139,0 72,0 C69.790861,0 68,1.790861 68,4 C68,6.209139 69.790861,8 72,8 Z M72,7 C73.6568542,7 75,5.65685425 75,4 C75,2.34314575 73.6568542,1 72,1 C70.3431458,1 69,2.34314575 69,4 C69,5.65685425 70.3431458,7 72,7 Z M88.7071068,4 L91.6819805,1.02512626 L90.9748738,0.318019485 L88,3.29289322 L85.0251262,0.318019485 L84.3180195,1.02512626 L87.2928932,4 L84.3180195,6.97487375 L85.0251262,7.6819805 L88,4.70710678 L90.9748738,7.6819805 L91.6819805,6.97487375 L88.7071068,4 Z M88,24 C90.209139,24 92,22.209139 92,20 C92,17.790861 90.209139,16 88,16 C85.790861,16 84,17.790861 84,20 C84,22.209139 85.790861,24 88,24 Z M88,23 C89.6568542,23 91,21.6568542 91,20 C91,18.3431458 89.6568542,17 88,17 C86.3431458,17 85,18.3431458 85,20 C85,21.6568542 86.3431458,23 88,23 Z M72.7071068,20 L75.6819805,17.0251262 L74.9748738,16.3180195 L72,19.2928932 L69.0251263,16.3180195 L68.3180195,17.0251262 L71.2928932,20 L68.3180195,22.9748737 L69.0251263,23.6819805 L72,20.7071068 L74.9748738,23.6819805 L75.6819805,22.9748737 L72.7071068,20 Z" id="Combined-Shape"></path>
            <path d="M105,8 C107.209139,8 109,6.209139 109,4 C109,1.790861 107.209139,0 105,0 C102.790861,0 101,1.790861 101,4 C101,6.209139 102.790861,8 105,8 Z M105,7 C106.656854,7 108,5.65685425 108,4 C108,2.34314575 106.656854,1 105,1 C103.343146,1 102,2.34314575 102,4 C102,5.65685425 103.343146,7 105,7 Z M121.707107,4 L124.68198,1.02512626 L123.974874,0.318019485 L121,3.29289322 L118.025126,0.318019485 L117.318019,1.02512626 L120.292893,4 L117.318019,6.97487375 L118.025126,7.6819805 L121,4.70710678 L123.974874,7.6819805 L124.68198,6.97487375 L121.707107,4 Z M121,24 C123.209139,24 125,22.209139 125,20 C125,17.790861 123.209139,16 121,16 C118.790861,16 117,17.790861 117,20 C117,22.209139 118.790861,24 121,24 Z M121,23 C122.656854,23 124,21.6568542 124,20 C124,18.3431458 122.656854,17 121,17 C119.343146,17 118,18.3431458 118,20 C118,21.6568542 119.343146,23 121,23 Z M105.707107,20 L108.68198,17.0251262 L107.974874,16.3180195 L105,19.2928932 L102.025126,16.3180195 L101.318019,17.0251262 L104.292893,20 L101.318019,22.9748737 L102.025126,23.6819805 L105,20.7071068 L107.974874,23.6819805 L108.68198,22.9748737 L105.707107,20 Z" id="Combined-Shape"></path>
            <path d="M72,43 C74.209139,43 76,41.209139 76,39 C76,36.790861 74.209139,35 72,35 C69.790861,35 68,36.790861 68,39 C68,41.209139 69.790861,43 72,43 Z M72,42 C73.6568542,42 75,40.6568543 75,39 C75,37.3431457 73.6568542,36 72,36 C70.3431458,36 69,37.3431457 69,39 C69,40.6568543 70.3431458,42 72,42 Z M88.7071068,39 L91.6819805,36.0251263 L90.9748738,35.3180195 L88,38.2928932 L85.0251262,35.3180195 L84.3180195,36.0251263 L87.2928932,39 L84.3180195,41.9748738 L85.0251262,42.6819805 L88,39.7071068 L90.9748738,42.6819805 L91.6819805,41.9748738 L88.7071068,39 Z M88,59 C90.209139,59 92,57.209139 92,55 C92,52.790861 90.209139,51 88,51 C85.790861,51 84,52.790861 84,55 C84,57.209139 85.790861,59 88,59 Z M88,58 C89.6568542,58 91,56.6568542 91,55 C91,53.3431458 89.6568542,52 88,52 C86.3431458,52 85,53.3431458 85,55 C85,56.6568542 86.3431458,58 88,58 Z M72.7071068,55 L75.6819805,52.0251262 L74.9748738,51.3180195 L72,54.2928932 L69.0251263,51.3180195 L68.3180195,52.0251262 L71.2928932,55 L68.3180195,57.9748737 L69.0251263,58.6819805 L72,55.7071068 L74.9748738,58.6819805 L75.6819805,57.9748737 L72.7071068,55 Z" id="Combined-Shape"></path>
            <path d="M105,43 C107.209139,43 109,41.209139 109,39 C109,36.790861 107.209139,35 105,35 C102.790861,35 101,36.790861 101,39 C101,41.209139 102.790861,43 105,43 Z M105,42 C106.656854,42 108,40.6568543 108,39 C108,37.3431457 106.656854,36 105,36 C103.343146,36 102,37.3431457 102,39 C102,40.6568543 103.343146,42 105,42 Z M121.707107,39 L124.68198,36.0251263 L123.974874,35.3180195 L121,38.2928932 L118.025126,35.3180195 L117.318019,36.0251263 L120.292893,39 L117.318019,41.9748738 L118.025126,42.6819805 L121,39.7071068 L123.974874,42.6819805 L124.68198,41.9748738 L121.707107,39 Z M121,59 C123.209139,59 125,57.209139 125,55 C125,52.790861 123.209139,51 121,51 C118.790861,51 117,52.790861 117,55 C117,57.209139 118.790861,59 121,59 Z M121,58 C122.656854,58 124,56.6568542 124,55 C124,53.3431458 122.656854,52 121,52 C119.343146,52 118,53.3431458 118,55 C118,56.6568542 119.343146,58 121,58 Z M105.707107,55 L108.68198,52.0251262 L107.974874,51.3180195 L105,54.2928932 L102.025126,51.3180195 L101.318019,52.0251262 L104.292893,55 L101.318019,57.9748737 L102.025126,58.6819805 L105,55.7071068 L107.974874,58.6819805 L108.68198,57.9748737 L105.707107,55 Z" id="Combined-Shape"></path>
            <path d="M4,8 C6.209139,8 8,6.209139 8,4 C8,1.790861 6.209139,0 4,0 C1.790861,0 0,1.790861 0,4 C0,6.209139 1.790861,8 4,8 Z M4,7 C5.65685425,7 7,5.65685425 7,4 C7,2.34314575 5.65685425,1 4,1 C2.34314575,1 1,2.34314575 1,4 C1,5.65685425 2.34314575,7 4,7 Z M20.7071068,4 L23.6819805,1.02512626 L22.9748737,0.318019485 L20,3.29289322 L17.0251262,0.318019485 L16.3180195,1.02512626 L19.2928932,4 L16.3180195,6.97487375 L17.0251262,7.6819805 L20,4.70710678 L22.9748737,7.6819805 L23.6819805,6.97487375 L20.7071068,4 Z M20,24 C22.209139,24 24,22.209139 24,20 C24,17.790861 22.209139,16 20,16 C17.790861,16 16,17.790861 16,20 C16,22.209139 17.790861,24 20,24 Z M20,23 C21.6568542,23 23,21.6568542 23,20 C23,18.3431458 21.6568542,17 20,17 C18.3431458,17 17,18.3431458 17,20 C17,21.6568542 18.3431458,23 20,23 Z M4.70710678,20 L7.6819805,17.0251262 L6.97487375,16.3180195 L4,19.2928932 L1.02512626,16.3180195 L0.318019485,17.0251262 L3.29289322,20 L0.318019485,22.9748737 L1.02512626,23.6819805 L4,20.7071068 L6.97487375,23.6819805 L7.6819805,22.9748737 L4.70710678,20 Z" id="Combined-Shape"></path>
            <path d="M38,8 C40.209139,8 42,6.209139 42,4 C42,1.790861 40.209139,0 38,0 C35.790861,0 34,1.790861 34,4 C34,6.209139 35.790861,8 38,8 Z M38,7 C39.6568543,7 41,5.65685425 41,4 C41,2.34314575 39.6568543,1 38,1 C36.3431457,1 35,2.34314575 35,4 C35,5.65685425 36.3431457,7 38,7 Z M54.7071068,4 L57.6819805,1.02512626 L56.9748737,0.318019485 L54,3.29289322 L51.0251262,0.318019485 L50.3180195,1.02512626 L53.2928932,4 L50.3180195,6.97487375 L51.0251262,7.6819805 L54,4.70710678 L56.9748737,7.6819805 L57.6819805,6.97487375 L54.7071068,4 Z M54,24 C56.209139,24 58,22.209139 58,20 C58,17.790861 56.209139,16 54,16 C51.790861,16 50,17.790861 50,20 C50,22.209139 51.790861,24 54,24 Z M54,23 C55.6568542,23 57,21.6568542 57,20 C57,18.3431458 55.6568542,17 54,17 C52.3431458,17 51,18.3431458 51,20 C51,21.6568542 52.3431458,23 54,23 Z M38.7071068,20 L41.6819805,17.0251262 L40.9748738,16.3180195 L38,19.2928932 L35.0251263,16.3180195 L34.3180195,17.0251262 L37.2928932,20 L34.3180195,22.9748737 L35.0251263,23.6819805 L38,20.7071068 L40.9748738,23.6819805 L41.6819805,22.9748737 L38.7071068,20 Z" id="Combined-Shape"></path>
            <path d="M4,43 C6.209139,43 8,41.209139 8,39 C8,36.790861 6.209139,35 4,35 C1.790861,35 0,36.790861 0,39 C0,41.209139 1.790861,43 4,43 Z M4,42 C5.65685425,42 7,40.6568543 7,39 C7,37.3431457 5.65685425,36 4,36 C2.34314575,36 1,37.3431457 1,39 C1,40.6568543 2.34314575,42 4,42 Z M20.7071068,39 L23.6819805,36.0251263 L22.9748737,35.3180195 L20,38.2928932 L17.0251262,35.3180195 L16.3180195,36.0251263 L19.2928932,39 L16.3180195,41.9748738 L17.0251262,42.6819805 L20,39.7071068 L22.9748737,42.6819805 L23.6819805,41.9748738 L20.7071068,39 Z M20,59 C22.209139,59 24,57.209139 24,55 C24,52.790861 22.209139,51 20,51 C17.790861,51 16,52.790861 16,55 C16,57.209139 17.790861,59 20,59 Z M20,58 C21.6568542,58 23,56.6568542 23,55 C23,53.3431458 21.6568542,52 20,52 C18.3431458,52 17,53.3431458 17,55 C17,56.6568542 18.3431458,58 20,58 Z M4.70710678,55 L7.6819805,52.0251262 L6.97487375,51.3180195 L4,54.2928932 L1.02512626,51.3180195 L0.318019485,52.0251262 L3.29289322,55 L0.318019485,57.9748737 L1.02512626,58.6819805 L4,55.7071068 L6.97487375,58.6819805 L7.6819805,57.9748737 L4.70710678,55 Z" id="Combined-Shape"></path>
            <path d="M38,43 C40.209139,43 42,41.209139 42,39 C42,36.790861 40.209139,35 38,35 C35.790861,35 34,36.790861 34,39 C34,41.209139 35.790861,43 38,43 Z M38,42 C39.6568543,42 41,40.6568543 41,39 C41,37.3431457 39.6568543,36 38,36 C36.3431457,36 35,37.3431457 35,39 C35,40.6568543 36.3431457,42 38,42 Z M54.7071068,39 L57.6819805,36.0251263 L56.9748737,35.3180195 L54,38.2928932 L51.0251262,35.3180195 L50.3180195,36.0251263 L53.2928932,39 L50.3180195,41.9748738 L51.0251262,42.6819805 L54,39.7071068 L56.9748737,42.6819805 L57.6819805,41.9748738 L54.7071068,39 Z M54,59 C56.209139,59 58,57.209139 58,55 C58,52.790861 56.209139,51 54,51 C51.790861,51 50,52.790861 50,55 C50,57.209139 51.790861,59 54,59 Z M54,58 C55.6568542,58 57,56.6568542 57,55 C57,53.3431458 55.6568542,52 54,52 C52.3431458,52 51,53.3431458 51,55 C51,56.6568542 52.3431458,58 54,58 Z M38.7071068,55 L41.6819805,52.0251262 L40.9748738,51.3180195 L38,54.2928932 L35.0251263,51.3180195 L34.3180195,52.0251262 L37.2928932,55 L34.3180195,57.9748737 L35.0251263,58.6819805 L38,55.7071068 L40.9748738,58.6819805 L41.6819805,57.9748737 L38.7071068,55 Z" id="Combined-Shape"></path>
            <path d="M207,8 C209.209139,8 211,6.209139 211,4 C211,1.790861 209.209139,0 207,0 C204.790861,0 203,1.790861 203,4 C203,6.209139 204.790861,8 207,8 Z M207,7 C208.656854,7 210,5.65685425 210,4 C210,2.34314575 208.656854,1 207,1 C205.343146,1 204,2.34314575 204,4 C204,5.65685425 205.343146,7 207,7 Z M223.707107,4 L226.681981,1.02512626 L225.974874,0.318019485 L223,3.29289322 L220.025126,0.318019485 L219.318019,1.02512626 L222.292893,4 L219.318019,6.97487375 L220.025126,7.6819805 L223,4.70710678 L225.974874,7.6819805 L226.681981,6.97487375 L223.707107,4 Z M223,24 C225.209139,24 227,22.209139 227,20 C227,17.790861 225.209139,16 223,16 C220.790861,16 219,17.790861 219,20 C219,22.209139 220.790861,24 223,24 Z M223,23 C224.656854,23 226,21.6568542 226,20 C226,18.3431458 224.656854,17 223,17 C221.343146,17 220,18.3431458 220,20 C220,21.6568542 221.343146,23 223,23 Z M207.707107,20 L210.681981,17.0251262 L209.974874,16.3180195 L207,19.2928932 L204.025126,16.3180195 L203.318019,17.0251262 L206.292893,20 L203.318019,22.9748737 L204.025126,23.6819805 L207,20.7071068 L209.974874,23.6819805 L210.681981,22.9748737 L207.707107,20 Z" id="Combined-Shape"></path>
            <path d="M240,8 C242.209139,8 244,6.209139 244,4 C244,1.790861 242.209139,0 240,0 C237.790861,0 236,1.790861 236,4 C236,6.209139 237.790861,8 240,8 Z M240,7 C241.656854,7 243,5.65685425 243,4 C243,2.34314575 241.656854,1 240,1 C238.343146,1 237,2.34314575 237,4 C237,5.65685425 238.343146,7 240,7 Z M256.707107,4 L259.681981,1.02512626 L258.974874,0.318019485 L256,3.29289322 L253.025126,0.318019485 L252.318019,1.02512626 L255.292893,4 L252.318019,6.97487375 L253.025126,7.6819805 L256,4.70710678 L258.974874,7.6819805 L259.681981,6.97487375 L256.707107,4 Z M256,24 C258.209139,24 260,22.209139 260,20 C260,17.790861 258.209139,16 256,16 C253.790861,16 252,17.790861 252,20 C252,22.209139 253.790861,24 256,24 Z M256,23 C257.656854,23 259,21.6568542 259,20 C259,18.3431458 257.656854,17 256,17 C254.343146,17 253,18.3431458 253,20 C253,21.6568542 254.343146,23 256,23 Z M240.707107,20 L243.681981,17.0251262 L242.974874,16.3180195 L240,19.2928932 L237.025126,16.3180195 L236.318019,17.0251262 L239.292893,20 L236.318019,22.9748737 L237.025126,23.6819805 L240,20.7071068 L242.974874,23.6819805 L243.681981,22.9748737 L240.707107,20 Z" id="Combined-Shape"></path>
            <path d="M207,43 C209.209139,43 211,41.209139 211,39 C211,36.790861 209.209139,35 207,35 C204.790861,35 203,36.790861 203,39 C203,41.209139 204.790861,43 207,43 Z M207,42 C208.656854,42 210,40.6568543 210,39 C210,37.3431457 208.656854,36 207,36 C205.343146,36 204,37.3431457 204,39 C204,40.6568543 205.343146,42 207,42 Z M223.707107,39 L226.681981,36.0251263 L225.974874,35.3180195 L223,38.2928932 L220.025126,35.3180195 L219.318019,36.0251263 L222.292893,39 L219.318019,41.9748738 L220.025126,42.6819805 L223,39.7071068 L225.974874,42.6819805 L226.681981,41.9748738 L223.707107,39 Z M223,59 C225.209139,59 227,57.209139 227,55 C227,52.790861 225.209139,51 223,51 C220.790861,51 219,52.790861 219,55 C219,57.209139 220.790861,59 223,59 Z M223,58 C224.656854,58 226,56.6568542 226,55 C226,53.3431458 224.656854,52 223,52 C221.343146,52 220,53.3431458 220,55 C220,56.6568542 221.343146,58 223,58 Z M207.707107,55 L210.681981,52.0251262 L209.974874,51.3180195 L207,54.2928932 L204.025126,51.3180195 L203.318019,52.0251262 L206.292893,55 L203.318019,57.9748737 L204.025126,58.6819805 L207,55.7071068 L209.974874,58.6819805 L210.681981,57.9748737 L207.707107,55 Z" id="Combined-Shape"></path>
            <path d="M240,43 C242.209139,43 244,41.209139 244,39 C244,36.790861 242.209139,35 240,35 C237.790861,35 236,36.790861 236,39 C236,41.209139 237.790861,43 240,43 Z M240,42 C241.656854,42 243,40.6568543 243,39 C243,37.3431457 241.656854,36 240,36 C238.343146,36 237,37.3431457 237,39 C237,40.6568543 238.343146,42 240,42 Z M256.707107,39 L259.681981,36.0251263 L258.974874,35.3180195 L256,38.2928932 L253.025126,35.3180195 L252.318019,36.0251263 L255.292893,39 L252.318019,41.9748738 L253.025126,42.6819805 L256,39.7071068 L258.974874,42.6819805 L259.681981,41.9748738 L256.707107,39 Z M256,59 C258.209139,59 260,57.209139 260,55 C260,52.790861 258.209139,51 256,51 C253.790861,51 252,52.790861 252,55 C252,57.209139 253.790861,59 256,59 Z M256,58 C257.656854,58 259,56.6568542 259,55 C259,53.3431458 257.656854,52 256,52 C254.343146,52 253,53.3431458 253,55 C253,56.6568542 254.343146,58 256,58 Z M240.707107,55 L243.681981,52.0251262 L242.974874,51.3180195 L240,54.2928932 L237.025126,51.3180195 L236.318019,52.0251262 L239.292893,55 L236.318019,57.9748737 L237.025126,58.6819805 L240,55.7071068 L242.974874,58.6819805 L243.681981,57.9748737 L240.707107,55 Z" id="Combined-Shape"></path>
            <path d="M139,8 C141.209139,8 143,6.209139 143,4 C143,1.790861 141.209139,0 139,0 C136.790861,0 135,1.790861 135,4 C135,6.209139 136.790861,8 139,8 Z M139,7 C140.656854,7 142,5.65685425 142,4 C142,2.34314575 140.656854,1 139,1 C137.343146,1 136,2.34314575 136,4 C136,5.65685425 137.343146,7 139,7 Z M155.707107,4 L158.681981,1.02512626 L157.974874,0.318019485 L155,3.29289322 L152.025126,0.318019485 L151.318019,1.02512626 L154.292893,4 L151.318019,6.97487375 L152.025126,7.6819805 L155,4.70710678 L157.974874,7.6819805 L158.681981,6.97487375 L155.707107,4 Z M155,24 C157.209139,24 159,22.209139 159,20 C159,17.790861 157.209139,16 155,16 C152.790861,16 151,17.790861 151,20 C151,22.209139 152.790861,24 155,24 Z M155,23 C156.656854,23 158,21.6568542 158,20 C158,18.3431458 156.656854,17 155,17 C153.343146,17 152,18.3431458 152,20 C152,21.6568542 153.343146,23 155,23 Z M139.707107,20 L142.681981,17.0251262 L141.974874,16.3180195 L139,19.2928932 L136.025126,16.3180195 L135.318019,17.0251262 L138.292893,20 L135.318019,22.9748737 L136.025126,23.6819805 L139,20.7071068 L141.974874,23.6819805 L142.681981,22.9748737 L139.707107,20 Z" id="Combined-Shape"></path>
            <path d="M173,8 C175.209139,8 177,6.209139 177,4 C177,1.790861 175.209139,0 173,0 C170.790861,0 169,1.790861 169,4 C169,6.209139 170.790861,8 173,8 Z M173,7 C174.656854,7 176,5.65685425 176,4 C176,2.34314575 174.656854,1 173,1 C171.343146,1 170,2.34314575 170,4 C170,5.65685425 171.343146,7 173,7 Z M189.707107,4 L192.681981,1.02512626 L191.974874,0.318019485 L189,3.29289322 L186.025126,0.318019485 L185.318019,1.02512626 L188.292893,4 L185.318019,6.97487375 L186.025126,7.6819805 L189,4.70710678 L191.974874,7.6819805 L192.681981,6.97487375 L189.707107,4 Z M189,24 C191.209139,24 193,22.209139 193,20 C193,17.790861 191.209139,16 189,16 C186.790861,16 185,17.790861 185,20 C185,22.209139 186.790861,24 189,24 Z M189,23 C190.656854,23 192,21.6568542 192,20 C192,18.3431458 190.656854,17 189,17 C187.343146,17 186,18.3431458 186,20 C186,21.6568542 187.343146,23 189,23 Z M173.707107,20 L176.681981,17.0251262 L175.974874,16.3180195 L173,19.2928932 L170.025126,16.3180195 L169.318019,17.0251262 L172.292893,20 L169.318019,22.9748737 L170.025126,23.6819805 L173,20.7071068 L175.974874,23.6819805 L176.681981,22.9748737 L173.707107,20 Z" id="Combined-Shape"></path>
            <path d="M139,43 C141.209139,43 143,41.209139 143,39 C143,36.790861 141.209139,35 139,35 C136.790861,35 135,36.790861 135,39 C135,41.209139 136.790861,43 139,43 Z M139,42 C140.656854,42 142,40.6568543 142,39 C142,37.3431457 140.656854,36 139,36 C137.343146,36 136,37.3431457 136,39 C136,40.6568543 137.343146,42 139,42 Z M155.707107,39 L158.681981,36.0251263 L157.974874,35.3180195 L155,38.2928932 L152.025126,35.3180195 L151.318019,36.0251263 L154.292893,39 L151.318019,41.9748738 L152.025126,42.6819805 L155,39.7071068 L157.974874,42.6819805 L158.681981,41.9748738 L155.707107,39 Z M155,59 C157.209139,59 159,57.209139 159,55 C159,52.790861 157.209139,51 155,51 C152.790861,51 151,52.790861 151,55 C151,57.209139 152.790861,59 155,59 Z M155,58 C156.656854,58 158,56.6568542 158,55 C158,53.3431458 156.656854,52 155,52 C153.343146,52 152,53.3431458 152,55 C152,56.6568542 153.343146,58 155,58 Z M139.707107,55 L142.681981,52.0251262 L141.974874,51.3180195 L139,54.2928932 L136.025126,51.3180195 L135.318019,52.0251262 L138.292893,55 L135.318019,57.9748737 L136.025126,58.6819805 L139,55.7071068 L141.974874,58.6819805 L142.681981,57.9748737 L139.707107,55 Z" id="Combined-Shape"></path>
            <path d="M173,43 C175.209139,43 177,41.209139 177,39 C177,36.790861 175.209139,35 173,35 C170.790861,35 169,36.790861 169,39 C169,41.209139 170.790861,43 173,43 Z M173,42 C174.656854,42 176,40.6568543 176,39 C176,37.3431457 174.656854,36 173,36 C171.343146,36 170,37.3431457 170,39 C170,40.6568543 171.343146,42 173,42 Z M189.707107,39 L192.681981,36.0251263 L191.974874,35.3180195 L189,38.2928932 L186.025126,35.3180195 L185.318019,36.0251263 L188.292893,39 L185.318019,41.9748738 L186.025126,42.6819805 L189,39.7071068 L191.974874,42.6819805 L192.681981,41.9748738 L189.707107,39 Z M189,59 C191.209139,59 193,57.209139 193,55 C193,52.790861 191.209139,51 189,51 C186.790861,51 185,52.790861 185,55 C185,57.209139 186.790861,59 189,59 Z M189,58 C190.656854,58 192,56.6568542 192,55 C192,53.3431458 190.656854,52 189,52 C187.343146,52 186,53.3431458 186,55 C186,56.6568542 187.343146,58 189,58 Z M173.707107,55 L176.681981,52.0251262 L175.974874,51.3180195 L173,54.2928932 L170.025126,51.3180195 L169.318019,52.0251262 L172.292893,55 L169.318019,57.9748737 L170.025126,58.6819805 L173,55.7071068 L175.974874,58.6819805 L176.681981,57.9748737 L173.707107,55 Z" id="Combined-Shape"></path>
            <path d="M72,78 C74.209139,78 76,76.209139 76,74 C76,71.790861 74.209139,70 72,70 C69.790861,70 68,71.790861 68,74 C68,76.209139 69.790861,78 72,78 Z M72,77 C73.6568542,77 75,75.6568542 75,74 C75,72.3431458 73.6568542,71 72,71 C70.3431458,71 69,72.3431458 69,74 C69,75.6568542 70.3431458,77 72,77 Z M88.7071068,74 L91.6819805,71.0251263 L90.9748738,70.3180195 L88,73.2928932 L85.0251262,70.3180195 L84.3180195,71.0251263 L87.2928932,74 L84.3180195,76.9748738 L85.0251262,77.6819805 L88,74.7071068 L90.9748738,77.6819805 L91.6819805,76.9748738 L88.7071068,74 Z M88,94 C90.209139,94 92,92.209139 92,90 C92,87.790861 90.209139,86 88,86 C85.790861,86 84,87.790861 84,90 C84,92.209139 85.790861,94 88,94 Z M88,93 C89.6568542,93 91,91.6568542 91,90 C91,88.3431458 89.6568542,87 88,87 C86.3431458,87 85,88.3431458 85,90 C85,91.6568542 86.3431458,93 88,93 Z M72.7071068,90 L75.6819805,87.0251262 L74.9748738,86.3180195 L72,89.2928932 L69.0251263,86.3180195 L68.3180195,87.0251262 L71.2928932,90 L68.3180195,92.9748738 L69.0251263,93.6819805 L72,90.7071068 L74.9748738,93.6819805 L75.6819805,92.9748738 L72.7071068,90 Z" id="Combined-Shape"></path>
            <path d="M105,78 C107.209139,78 109,76.209139 109,74 C109,71.790861 107.209139,70 105,70 C102.790861,70 101,71.790861 101,74 C101,76.209139 102.790861,78 105,78 Z M105,77 C106.656854,77 108,75.6568542 108,74 C108,72.3431458 106.656854,71 105,71 C103.343146,71 102,72.3431458 102,74 C102,75.6568542 103.343146,77 105,77 Z M121.707107,74 L124.68198,71.0251263 L123.974874,70.3180195 L121,73.2928932 L118.025126,70.3180195 L117.318019,71.0251263 L120.292893,74 L117.318019,76.9748738 L118.025126,77.6819805 L121,74.7071068 L123.974874,77.6819805 L124.68198,76.9748738 L121.707107,74 Z M121,94 C123.209139,94 125,92.209139 125,90 C125,87.790861 123.209139,86 121,86 C118.790861,86 117,87.790861 117,90 C117,92.209139 118.790861,94 121,94 Z M121,93 C122.656854,93 124,91.6568542 124,90 C124,88.3431458 122.656854,87 121,87 C119.343146,87 118,88.3431458 118,90 C118,91.6568542 119.343146,93 121,93 Z M105.707107,90 L108.68198,87.0251262 L107.974874,86.3180195 L105,89.2928932 L102.025126,86.3180195 L101.318019,87.0251262 L104.292893,90 L101.318019,92.9748738 L102.025126,93.6819805 L105,90.7071068 L107.974874,93.6819805 L108.68198,92.9748738 L105.707107,90 Z" id="Combined-Shape"></path>
            <path d="M72,113 C74.209139,113 76,111.209139 76,109 C76,106.790861 74.209139,105 72,105 C69.790861,105 68,106.790861 68,109 C68,111.209139 69.790861,113 72,113 Z M72,112 C73.6568542,112 75,110.656854 75,109 C75,107.343146 73.6568542,106 72,106 C70.3431458,106 69,107.343146 69,109 C69,110.656854 70.3431458,112 72,112 Z M88.7071068,109 L91.6819805,106.025126 L90.9748738,105.318019 L88,108.292893 L85.0251262,105.318019 L84.3180195,106.025126 L87.2928932,109 L84.3180195,111.974874 L85.0251262,112.68198 L88,109.707107 L90.9748738,112.68198 L91.6819805,111.974874 L88.7071068,109 Z M88,129 C90.209139,129 92,127.209139 92,125 C92,122.790861 90.209139,121 88,121 C85.790861,121 84,122.790861 84,125 C84,127.209139 85.790861,129 88,129 Z M88,128 C89.6568542,128 91,126.656854 91,125 C91,123.343146 89.6568542,122 88,122 C86.3431458,122 85,123.343146 85,125 C85,126.656854 86.3431458,128 88,128 Z M72.7071068,125 L75.6819805,122.025126 L74.9748738,121.318019 L72,124.292893 L69.0251263,121.318019 L68.3180195,122.025126 L71.2928932,125 L68.3180195,127.974874 L69.0251263,128.681981 L72,125.707107 L74.9748738,128.681981 L75.6819805,127.974874 L72.7071068,125 Z" id="Combined-Shape"></path>
            <path d="M105,113 C107.209139,113 109,111.209139 109,109 C109,106.790861 107.209139,105 105,105 C102.790861,105 101,106.790861 101,109 C101,111.209139 102.790861,113 105,113 Z M105,112 C106.656854,112 108,110.656854 108,109 C108,107.343146 106.656854,106 105,106 C103.343146,106 102,107.343146 102,109 C102,110.656854 103.343146,112 105,112 Z M121.707107,109 L124.68198,106.025126 L123.974874,105.318019 L121,108.292893 L118.025126,105.318019 L117.318019,106.025126 L120.292893,109 L117.318019,111.974874 L118.025126,112.68198 L121,109.707107 L123.974874,112.68198 L124.68198,111.974874 L121.707107,109 Z M121,129 C123.209139,129 125,127.209139 125,125 C125,122.790861 123.209139,121 121,121 C118.790861,121 117,122.790861 117,125 C117,127.209139 118.790861,129 121,129 Z M121,128 C122.656854,128 124,126.656854 124,125 C124,123.343146 122.656854,122 121,122 C119.343146,122 118,123.343146 118,125 C118,126.656854 119.343146,128 121,128 Z M105.707107,125 L108.68198,122.025126 L107.974874,121.318019 L105,124.292893 L102.025126,121.318019 L101.318019,122.025126 L104.292893,125 L101.318019,127.974874 L102.025126,128.681981 L105,125.707107 L107.974874,128.681981 L108.68198,127.974874 L105.707107,125 Z" id="Combined-Shape"></path>
            <path d="M4,78 C6.209139,78 8,76.209139 8,74 C8,71.790861 6.209139,70 4,70 C1.790861,70 0,71.790861 0,74 C0,76.209139 1.790861,78 4,78 Z M4,77 C5.65685425,77 7,75.6568542 7,74 C7,72.3431458 5.65685425,71 4,71 C2.34314575,71 1,72.3431458 1,74 C1,75.6568542 2.34314575,77 4,77 Z M20.7071068,74 L23.6819805,71.0251263 L22.9748737,70.3180195 L20,73.2928932 L17.0251262,70.3180195 L16.3180195,71.0251263 L19.2928932,74 L16.3180195,76.9748738 L17.0251262,77.6819805 L20,74.7071068 L22.9748737,77.6819805 L23.6819805,76.9748738 L20.7071068,74 Z M20,94 C22.209139,94 24,92.209139 24,90 C24,87.790861 22.209139,86 20,86 C17.790861,86 16,87.790861 16,90 C16,92.209139 17.790861,94 20,94 Z M20,93 C21.6568542,93 23,91.6568542 23,90 C23,88.3431458 21.6568542,87 20,87 C18.3431458,87 17,88.3431458 17,90 C17,91.6568542 18.3431458,93 20,93 Z M4.70710678,90 L7.6819805,87.0251262 L6.97487375,86.3180195 L4,89.2928932 L1.02512626,86.3180195 L0.318019485,87.0251262 L3.29289322,90 L0.318019485,92.9748738 L1.02512626,93.6819805 L4,90.7071068 L6.97487375,93.6819805 L7.6819805,92.9748738 L4.70710678,90 Z" id="Combined-Shape"></path>
            <path d="M38,78 C40.209139,78 42,76.209139 42,74 C42,71.790861 40.209139,70 38,70 C35.790861,70 34,71.790861 34,74 C34,76.209139 35.790861,78 38,78 Z M38,77 C39.6568543,77 41,75.6568542 41,74 C41,72.3431458 39.6568543,71 38,71 C36.3431457,71 35,72.3431458 35,74 C35,75.6568542 36.3431457,77 38,77 Z M54.7071068,74 L57.6819805,71.0251263 L56.9748737,70.3180195 L54,73.2928932 L51.0251262,70.3180195 L50.3180195,71.0251263 L53.2928932,74 L50.3180195,76.9748738 L51.0251262,77.6819805 L54,74.7071068 L56.9748737,77.6819805 L57.6819805,76.9748738 L54.7071068,74 Z M54,94 C56.209139,94 58,92.209139 58,90 C58,87.790861 56.209139,86 54,86 C51.790861,86 50,87.790861 50,90 C50,92.209139 51.790861,94 54,94 Z M54,93 C55.6568542,93 57,91.6568542 57,90 C57,88.3431458 55.6568542,87 54,87 C52.3431458,87 51,88.3431458 51,90 C51,91.6568542 52.3431458,93 54,93 Z M38.7071068,90 L41.6819805,87.0251262 L40.9748738,86.3180195 L38,89.2928932 L35.0251263,86.3180195 L34.3180195,87.0251262 L37.2928932,90 L34.3180195,92.9748738 L35.0251263,93.6819805 L38,90.7071068 L40.9748738,93.6819805 L41.6819805,92.9748738 L38.7071068,90 Z" id="Combined-Shape"></path>
            <path d="M4,113 C6.209139,113 8,111.209139 8,109 C8,106.790861 6.209139,105 4,105 C1.790861,105 0,106.790861 0,109 C0,111.209139 1.790861,113 4,113 Z M4,112 C5.65685425,112 7,110.656854 7,109 C7,107.343146 5.65685425,106 4,106 C2.34314575,106 1,107.343146 1,109 C1,110.656854 2.34314575,112 4,112 Z M20.7071068,109 L23.6819805,106.025126 L22.9748737,105.318019 L20,108.292893 L17.0251262,105.318019 L16.3180195,106.025126 L19.2928932,109 L16.3180195,111.974874 L17.0251262,112.68198 L20,109.707107 L22.9748737,112.68198 L23.6819805,111.974874 L20.7071068,109 Z M20,129 C22.209139,129 24,127.209139 24,125 C24,122.790861 22.209139,121 20,121 C17.790861,121 16,122.790861 16,125 C16,127.209139 17.790861,129 20,129 Z M20,128 C21.6568542,128 23,126.656854 23,125 C23,123.343146 21.6568542,122 20,122 C18.3431458,122 17,123.343146 17,125 C17,126.656854 18.3431458,128 20,128 Z M4.70710678,125 L7.6819805,122.025126 L6.97487375,121.318019 L4,124.292893 L1.02512626,121.318019 L0.318019485,122.025126 L3.29289322,125 L0.318019485,127.974874 L1.02512626,128.681981 L4,125.707107 L6.97487375,128.681981 L7.6819805,127.974874 L4.70710678,125 Z" id="Combined-Shape"></path>
            <path d="M38,113 C40.209139,113 42,111.209139 42,109 C42,106.790861 40.209139,105 38,105 C35.790861,105 34,106.790861 34,109 C34,111.209139 35.790861,113 38,113 Z M38,112 C39.6568543,112 41,110.656854 41,109 C41,107.343146 39.6568543,106 38,106 C36.3431457,106 35,107.343146 35,109 C35,110.656854 36.3431457,112 38,112 Z M54.7071068,109 L57.6819805,106.025126 L56.9748737,105.318019 L54,108.292893 L51.0251262,105.318019 L50.3180195,106.025126 L53.2928932,109 L50.3180195,111.974874 L51.0251262,112.68198 L54,109.707107 L56.9748737,112.68198 L57.6819805,111.974874 L54.7071068,109 Z M54,129 C56.209139,129 58,127.209139 58,125 C58,122.790861 56.209139,121 54,121 C51.790861,121 50,122.790861 50,125 C50,127.209139 51.790861,129 54,129 Z M54,128 C55.6568542,128 57,126.656854 57,125 C57,123.343146 55.6568542,122 54,122 C52.3431458,122 51,123.343146 51,125 C51,126.656854 52.3431458,128 54,128 Z M38.7071068,125 L41.6819805,122.025126 L40.9748738,121.318019 L38,124.292893 L35.0251263,121.318019 L34.3180195,122.025126 L37.2928932,125 L34.3180195,127.974874 L35.0251263,128.681981 L38,125.707107 L40.9748738,128.681981 L41.6819805,127.974874 L38.7071068,125 Z" id="Combined-Shape"></path>
            <path d="M207,78 C209.209139,78 211,76.209139 211,74 C211,71.790861 209.209139,70 207,70 C204.790861,70 203,71.790861 203,74 C203,76.209139 204.790861,78 207,78 Z M207,77 C208.656854,77 210,75.6568542 210,74 C210,72.3431458 208.656854,71 207,71 C205.343146,71 204,72.3431458 204,74 C204,75.6568542 205.343146,77 207,77 Z M223.707107,74 L226.681981,71.0251263 L225.974874,70.3180195 L223,73.2928932 L220.025126,70.3180195 L219.318019,71.0251263 L222.292893,74 L219.318019,76.9748738 L220.025126,77.6819805 L223,74.7071068 L225.974874,77.6819805 L226.681981,76.9748738 L223.707107,74 Z M223,94 C225.209139,94 227,92.209139 227,90 C227,87.790861 225.209139,86 223,86 C220.790861,86 219,87.790861 219,90 C219,92.209139 220.790861,94 223,94 Z M223,93 C224.656854,93 226,91.6568542 226,90 C226,88.3431458 224.656854,87 223,87 C221.343146,87 220,88.3431458 220,90 C220,91.6568542 221.343146,93 223,93 Z M207.707107,90 L210.681981,87.0251262 L209.974874,86.3180195 L207,89.2928932 L204.025126,86.3180195 L203.318019,87.0251262 L206.292893,90 L203.318019,92.9748738 L204.025126,93.6819805 L207,90.7071068 L209.974874,93.6819805 L210.681981,92.9748738 L207.707107,90 Z" id="Combined-Shape"></path>
            <path d="M240,78 C242.209139,78 244,76.209139 244,74 C244,71.790861 242.209139,70 240,70 C237.790861,70 236,71.790861 236,74 C236,76.209139 237.790861,78 240,78 Z M240,77 C241.656854,77 243,75.6568542 243,74 C243,72.3431458 241.656854,71 240,71 C238.343146,71 237,72.3431458 237,74 C237,75.6568542 238.343146,77 240,77 Z M256.707107,74 L259.681981,71.0251263 L258.974874,70.3180195 L256,73.2928932 L253.025126,70.3180195 L252.318019,71.0251263 L255.292893,74 L252.318019,76.9748738 L253.025126,77.6819805 L256,74.7071068 L258.974874,77.6819805 L259.681981,76.9748738 L256.707107,74 Z M256,94 C258.209139,94 260,92.209139 260,90 C260,87.790861 258.209139,86 256,86 C253.790861,86 252,87.790861 252,90 C252,92.209139 253.790861,94 256,94 Z M256,93 C257.656854,93 259,91.6568542 259,90 C259,88.3431458 257.656854,87 256,87 C254.343146,87 253,88.3431458 253,90 C253,91.6568542 254.343146,93 256,93 Z M240.707107,90 L243.681981,87.0251262 L242.974874,86.3180195 L240,89.2928932 L237.025126,86.3180195 L236.318019,87.0251262 L239.292893,90 L236.318019,92.9748738 L237.025126,93.6819805 L240,90.7071068 L242.974874,93.6819805 L243.681981,92.9748738 L240.707107,90 Z" id="Combined-Shape"></path>
            <path d="M207,113 C209.209139,113 211,111.209139 211,109 C211,106.790861 209.209139,105 207,105 C204.790861,105 203,106.790861 203,109 C203,111.209139 204.790861,113 207,113 Z M207,112 C208.656854,112 210,110.656854 210,109 C210,107.343146 208.656854,106 207,106 C205.343146,106 204,107.343146 204,109 C204,110.656854 205.343146,112 207,112 Z M223.707107,109 L226.681981,106.025126 L225.974874,105.318019 L223,108.292893 L220.025126,105.318019 L219.318019,106.025126 L222.292893,109 L219.318019,111.974874 L220.025126,112.68198 L223,109.707107 L225.974874,112.68198 L226.681981,111.974874 L223.707107,109 Z M223,129 C225.209139,129 227,127.209139 227,125 C227,122.790861 225.209139,121 223,121 C220.790861,121 219,122.790861 219,125 C219,127.209139 220.790861,129 223,129 Z M223,128 C224.656854,128 226,126.656854 226,125 C226,123.343146 224.656854,122 223,122 C221.343146,122 220,123.343146 220,125 C220,126.656854 221.343146,128 223,128 Z M207.707107,125 L210.681981,122.025126 L209.974874,121.318019 L207,124.292893 L204.025126,121.318019 L203.318019,122.025126 L206.292893,125 L203.318019,127.974874 L204.025126,128.681981 L207,125.707107 L209.974874,128.681981 L210.681981,127.974874 L207.707107,125 Z" id="Combined-Shape"></path>
            <path d="M240,113 C242.209139,113 244,111.209139 244,109 C244,106.790861 242.209139,105 240,105 C237.790861,105 236,106.790861 236,109 C236,111.209139 237.790861,113 240,113 Z M240,112 C241.656854,112 243,110.656854 243,109 C243,107.343146 241.656854,106 240,106 C238.343146,106 237,107.343146 237,109 C237,110.656854 238.343146,112 240,112 Z M256.707107,109 L259.681981,106.025126 L258.974874,105.318019 L256,108.292893 L253.025126,105.318019 L252.318019,106.025126 L255.292893,109 L252.318019,111.974874 L253.025126,112.68198 L256,109.707107 L258.974874,112.68198 L259.681981,111.974874 L256.707107,109 Z M256,129 C258.209139,129 260,127.209139 260,125 C260,122.790861 258.209139,121 256,121 C253.790861,121 252,122.790861 252,125 C252,127.209139 253.790861,129 256,129 Z M256,128 C257.656854,128 259,126.656854 259,125 C259,123.343146 257.656854,122 256,122 C254.343146,122 253,123.343146 253,125 C253,126.656854 254.343146,128 256,128 Z M240.707107,125 L243.681981,122.025126 L242.974874,121.318019 L240,124.292893 L237.025126,121.318019 L236.318019,122.025126 L239.292893,125 L236.318019,127.974874 L237.025126,128.681981 L240,125.707107 L242.974874,128.681981 L243.681981,127.974874 L240.707107,125 Z" id="Combined-Shape"></path>
            <path d="M139,78 C141.209139,78 143,76.209139 143,74 C143,71.790861 141.209139,70 139,70 C136.790861,70 135,71.790861 135,74 C135,76.209139 136.790861,78 139,78 Z M139,77 C140.656854,77 142,75.6568542 142,74 C142,72.3431458 140.656854,71 139,71 C137.343146,71 136,72.3431458 136,74 C136,75.6568542 137.343146,77 139,77 Z M155.707107,74 L158.681981,71.0251263 L157.974874,70.3180195 L155,73.2928932 L152.025126,70.3180195 L151.318019,71.0251263 L154.292893,74 L151.318019,76.9748738 L152.025126,77.6819805 L155,74.7071068 L157.974874,77.6819805 L158.681981,76.9748738 L155.707107,74 Z M155,94 C157.209139,94 159,92.209139 159,90 C159,87.790861 157.209139,86 155,86 C152.790861,86 151,87.790861 151,90 C151,92.209139 152.790861,94 155,94 Z M155,93 C156.656854,93 158,91.6568542 158,90 C158,88.3431458 156.656854,87 155,87 C153.343146,87 152,88.3431458 152,90 C152,91.6568542 153.343146,93 155,93 Z M139.707107,90 L142.681981,87.0251262 L141.974874,86.3180195 L139,89.2928932 L136.025126,86.3180195 L135.318019,87.0251262 L138.292893,90 L135.318019,92.9748738 L136.025126,93.6819805 L139,90.7071068 L141.974874,93.6819805 L142.681981,92.9748738 L139.707107,90 Z" id="Combined-Shape"></path>
            <path d="M173,78 C175.209139,78 177,76.209139 177,74 C177,71.790861 175.209139,70 173,70 C170.790861,70 169,71.790861 169,74 C169,76.209139 170.790861,78 173,78 Z M173,77 C174.656854,77 176,75.6568542 176,74 C176,72.3431458 174.656854,71 173,71 C171.343146,71 170,72.3431458 170,74 C170,75.6568542 171.343146,77 173,77 Z M189.707107,74 L192.681981,71.0251263 L191.974874,70.3180195 L189,73.2928932 L186.025126,70.3180195 L185.318019,71.0251263 L188.292893,74 L185.318019,76.9748738 L186.025126,77.6819805 L189,74.7071068 L191.974874,77.6819805 L192.681981,76.9748738 L189.707107,74 Z M189,94 C191.209139,94 193,92.209139 193,90 C193,87.790861 191.209139,86 189,86 C186.790861,86 185,87.790861 185,90 C185,92.209139 186.790861,94 189,94 Z M189,93 C190.656854,93 192,91.6568542 192,90 C192,88.3431458 190.656854,87 189,87 C187.343146,87 186,88.3431458 186,90 C186,91.6568542 187.343146,93 189,93 Z M173.707107,90 L176.681981,87.0251262 L175.974874,86.3180195 L173,89.2928932 L170.025126,86.3180195 L169.318019,87.0251262 L172.292893,90 L169.318019,92.9748738 L170.025126,93.6819805 L173,90.7071068 L175.974874,93.6819805 L176.681981,92.9748738 L173.707107,90 Z" id="Combined-Shape"></path>
            <path d="M139,113 C141.209139,113 143,111.209139 143,109 C143,106.790861 141.209139,105 139,105 C136.790861,105 135,106.790861 135,109 C135,111.209139 136.790861,113 139,113 Z M139,112 C140.656854,112 142,110.656854 142,109 C142,107.343146 140.656854,106 139,106 C137.343146,106 136,107.343146 136,109 C136,110.656854 137.343146,112 139,112 Z M155.707107,109 L158.681981,106.025126 L157.974874,105.318019 L155,108.292893 L152.025126,105.318019 L151.318019,106.025126 L154.292893,109 L151.318019,111.974874 L152.025126,112.68198 L155,109.707107 L157.974874,112.68198 L158.681981,111.974874 L155.707107,109 Z M155,129 C157.209139,129 159,127.209139 159,125 C159,122.790861 157.209139,121 155,121 C152.790861,121 151,122.790861 151,125 C151,127.209139 152.790861,129 155,129 Z M155,128 C156.656854,128 158,126.656854 158,125 C158,123.343146 156.656854,122 155,122 C153.343146,122 152,123.343146 152,125 C152,126.656854 153.343146,128 155,128 Z M139.707107,125 L142.681981,122.025126 L141.974874,121.318019 L139,124.292893 L136.025126,121.318019 L135.318019,122.025126 L138.292893,125 L135.318019,127.974874 L136.025126,128.681981 L139,125.707107 L141.974874,128.681981 L142.681981,127.974874 L139.707107,125 Z" id="Combined-Shape"></path>
            <path d="M173,113 C175.209139,113 177,111.209139 177,109 C177,106.790861 175.209139,105 173,105 C170.790861,105 169,106.790861 169,109 C169,111.209139 170.790861,113 173,113 Z M173,112 C174.656854,112 176,110.656854 176,109 C176,107.343146 174.656854,106 173,106 C171.343146,106 170,107.343146 170,109 C170,110.656854 171.343146,112 173,112 Z M189.707107,109 L192.681981,106.025126 L191.974874,105.318019 L189,108.292893 L186.025126,105.318019 L185.318019,106.025126 L188.292893,109 L185.318019,111.974874 L186.025126,112.68198 L189,109.707107 L191.974874,112.68198 L192.681981,111.974874 L189.707107,109 Z M189,129 C191.209139,129 193,127.209139 193,125 C193,122.790861 191.209139,121 189,121 C186.790861,121 185,122.790861 185,125 C185,127.209139 186.790861,129 189,129 Z M189,128 C190.656854,128 192,126.656854 192,125 C192,123.343146 190.656854,122 189,122 C187.343146,122 186,123.343146 186,125 C186,126.656854 187.343146,128 189,128 Z M173.707107,125 L176.681981,122.025126 L175.974874,121.318019 L173,124.292893 L170.025126,121.318019 L169.318019,122.025126 L172.292893,125 L169.318019,127.974874 L170.025126,128.681981 L173,125.707107 L175.974874,128.681981 L176.681981,127.974874 L173.707107,125 Z" id="Combined-Shape"></path>
        </g>
    </g>
</svg>