<?xml version="1.0" encoding="UTF-8"?>
<svg width="109px" height="96px" viewBox="0 0 109 96" version="1.1" xmlns="http://www.w3.org/2000/svg" xmlns:xlink="http://www.w3.org/1999/xlink">
    <title>编组 16</title>
    <g id="页面-1" stroke="none" stroke-width="1" fill="none" fill-rule="evenodd">
        <g id="assets" transform="translate(-902.000000, -827.000000)" fill-rule="nonzero">
            <g id="编组-16" transform="translate(902.000000, 827.000000)">
                <path d="M98.8568791,22.1538462 C94.5335541,22.1538462 90.5923967,21.0965567 87.1428891,19.0112497 C83.4946784,16.8067512 75.9709565,18.0827691 75.4067495,19.2076253 L74.7149321,20.88601 L76.6647015,1.4528637 L76.7380543,1.38403067 C76.8985324,1.22932565 80.806071,-2.36802072 91.0438545,2.69134514 C98.8143823,6.53036378 105.166358,4.72105917 107.536688,3.76499804 C107.783147,3.66481847 108.063432,3.69942572 108.27858,3.85660042 C108.493727,4.01377513 108.613466,4.27140386 108.595519,4.53852139 L107.52371,20.1973462 C107.503669,20.5148507 107.292119,20.7873615 106.991064,20.8834791 C104.358341,21.7158583 101.616203,22.1441154 98.8568791,22.1538462 L98.8568791,22.1538462 Z" id="路径" fill="#0FBCC0"></path>
                <path d="M76.2352941,0.868778281 C75.6358133,0.869526811 75.1500098,1.39768493 75.1493213,2.04943126 L75.1493213,41.8238719 C75.1493213,42.4759285 75.6355279,43.0045249 76.2352941,43.0045249 C76.8350604,43.0045249 77.321267,42.4759285 77.321267,41.8238719 L77.321267,2.04943126 C77.3205785,1.39768493 76.8347749,0.869526811 76.2352941,0.868778281 Z" id="路径" fill="#3F3D56"></path>
                <g id="编组-4" transform="translate(39.963801, 54.298643) scale(-1, 1) translate(-39.963801, -54.298643) translate(0.000000, 12.597285)">
                    <path d="M79.3585046,60.4695292 C81.0846709,59.0062146 78.7519044,53.3068198 74.1481248,47.7395747 C69.5443453,42.1723296 64.4129104,38.8454367 62.6867442,40.3087513 C60.960578,41.772066 63.2933445,47.4714607 67.897124,53.0387058 C72.5009035,58.6059509 77.6323384,61.9328439 79.3585046,60.4695292 Z" id="椭圆形" fill="#2F2E41"></path>
                    <path d="M68.1468692,54.1364381 C72.7354629,40.370658 65.2958834,25.4914982 51.5301033,20.9029045 C37.7643232,16.3143108 22.8851634,23.7538904 18.2965697,37.5196705 C13.707976,51.2854506 21.1475555,66.1646104 34.9133356,70.7532041 C48.6791157,75.3417978 63.5582755,67.9022182 68.1468692,54.1364381 Z" id="椭圆形" fill="#2F2E41"></path>
                    <rect id="矩形" fill="#2F2E41" x="46.9140271" y="66.0271493" width="7.81900452" height="14.3348416"></rect>
                    <rect id="矩形" fill="#2F2E41" x="30.4072398" y="66.0271493" width="7.81900452" height="14.3348416"></rect>
                    <ellipse id="椭圆形" fill="#2F2E41" cx="48.2171946" cy="80.5791855" rx="6.5158371" ry="2.82352941"></ellipse>
                    <ellipse id="椭圆形" fill="#2F2E41" cx="31.7104072" cy="80.5791855" rx="6.5158371" ry="2.82352941"></ellipse>
                    <path d="M35.1189731,13.0775392 C37.4415356,3.61238141 47.6937217,-1.95765648 58.0178633,0.636500831 C68.342005,3.23065814 74.8285978,13.006711 72.5060353,22.4718749 C70.1834727,31.9370388 62.4779538,31.9675911 52.1538062,29.3733849 C41.8296585,26.7791787 32.7963985,22.5427215 35.1189731,13.0775392 Z" id="路径" fill="#4FCDD0"></path>
                    <ellipse id="椭圆形" fill="#2F2E41" transform="translate(13.620752, 33.512700) rotate(-64.625740) translate(-13.620752, -33.512700) " cx="13.6207515" cy="33.5126997" rx="4.11920111" ry="13.1214025"></ellipse>
                    <circle id="椭圆形" fill="#FFFFFF" cx="39.0950226" cy="40.39819" r="8.68778281"></circle>
                    <circle id="椭圆形" fill="#3F3D56" cx="35.4027149" cy="36.7058824" r="2.82352941"></circle>
                    <circle id="椭圆形" fill="#FFFFFF" cx="38.6606335" cy="58.6425339" r="3.90950226"></circle>
                </g>
            </g>
        </g>
    </g>
</svg>