<?xml version="1.0" encoding="UTF-8"?>
<svg width="48px" height="48px" viewBox="0 0 48 48" version="1.1" xmlns="http://www.w3.org/2000/svg" xmlns:xlink="http://www.w3.org/1999/xlink">
    <title>编组 12</title>
    <g id="页面-1" stroke="none" stroke-width="1" fill="none" fill-rule="evenodd" opacity="0.159537906">
        <g id="assets" transform="translate(-1405.000000, -221.000000)" fill="#000000" fill-rule="nonzero">
            <g id="upload" transform="translate(1405.000000, 221.000000)">
                <rect id="矩形" opacity="0" x="0" y="0" width="48" height="48"></rect>
                <path d="M36.1103438,16.5040312 C33.8240625,11.2617188 28.601625,7.59384375 22.5170625,7.59384375 C14.3270625,7.59384375 7.6875,14.2332187 7.6875,22.4233125 C7.6875,22.4680312 7.69378125,22.5111562 7.69415625,22.5556875 C3.4843125,23.2603125 0.27271875,26.9110313 0.27271875,31.3210312 C0.27271875,36.235125 4.2564375,40.21875 9.17053125,40.21875 L37.3465312,40.21875 L37.3465312,40.1162812 C43.1971875,39.385125 47.727375,34.404 47.727375,28.3550625 C47.727375,21.8864063 42.5474063,16.6365937 36.1103438,16.5040312 Z M26.965875,23.9063437 L26.965875,34.287 L21.0340313,34.287 L21.0340313,23.9063437 L16.5853125,23.9063437 L24,16.4915625 L31.4147813,23.9063437 L26.965875,23.9063437 Z" id="形状"></path>
            </g>
        </g>
    </g>
</svg>