<?xml version="1.0" encoding="UTF-8"?>
<svg width="16px" height="16px" viewBox="0 0 16 16" version="1.1" xmlns="http://www.w3.org/2000/svg" xmlns:xlink="http://www.w3.org/1999/xlink">
    <title>check</title>
    <g id="页面-1" stroke="none" stroke-width="1" fill="none" fill-rule="evenodd">
        <g id="assets" transform="translate(-1374.000000, -544.000000)" fill="#000000" fill-rule="nonzero">
            <g id="check" transform="translate(1374.000000, 544.000000)">
                <rect id="矩形" opacity="0" x="0" y="0" width="16" height="16"></rect>
                <path d="M5.87692308,13.0769231 L0.8,7.96923077 C0.615384609,7.78461538 0.615384609,7.47692308 0.8,7.29230769 L1.47692308,6.61538461 C1.66153846,6.43076922 1.96923077,6.43076922 2.15384616,6.61538461 L5.96923077,10.4615385 C6.09230769,10.5846154 6.3076923,10.5846154 6.43076923,10.4615385 L13.9076923,2.92307692 C14.0923077,2.73846153 14.4,2.73846153 14.5846154,2.92307692 L15.2615385,3.6 C15.4461539,3.78461538 15.4461539,4.09230769 15.2615385,4.27692308 L6.55384616,13.0769231 C6.36923077,13.2923077 6.06153847,13.2923077 5.87692308,13.0769231 Z" id="路径"></path>
            </g>
        </g>
    </g>
</svg>