<?xml version="1.0" encoding="UTF-8"?>
<svg width="16px" height="16px" viewBox="0 0 16 16" version="1.1" xmlns="http://www.w3.org/2000/svg" xmlns:xlink="http://www.w3.org/1999/xlink">
    <title>message</title>
    <g id="页面-1" stroke="none" stroke-width="1" fill="none" fill-rule="evenodd">
        <g id="assets" transform="translate(-1097.000000, -508.000000)" fill="#000000" fill-rule="nonzero">
            <g id="message" transform="translate(1096.856487, 508.000000)">
                <rect id="矩形" opacity="0" x="0" y="0" width="16" height="16"></rect>
                <path d="M10,6.5 L6,6.5 C5.724,6.5 5.5,6.276 5.5,6 C5.5,5.724 5.724,5.5 6,5.5 L10,5.5 C10.2765,5.5 10.5,5.724 10.5,6 C10.5,6.276 10.2765,6.5 10,6.5 Z M9.051,8.5 L6,8.5 C5.724,8.5 5.5,8.276 5.5,8 C5.5,7.724 5.724,7.5 6,7.5 L9.051,7.5 C9.3275,7.5 9.551,7.724 9.551,8 C9.551,8.276 9.327,8.5 9.051,8.5 Z M15.035,7 C15.035,3.6915 11.895,1 8.035,1 C4.175,1 1.035,3.6915 1.035,7 C1.035,8.8205 2.02,10.532 3.737,11.698 C3.9655,11.854 4.2765,11.794 4.4315,11.565 C4.5865,11.3365 4.527,11.0255 4.2985,10.8705 C2.86,9.894 2.035,8.4835 2.035,7 C2.035,4.243 4.7265,2 8.035,2 C11.3435,2 14.035,4.243 14.035,7 C14.035,9.757 11.3435,12 8.035,12 C8.004,12 7.9775,12.012 7.948,12.0175 C7.7115,11.975 7.472,12.099 7.389,12.333 C7.293,12.6045 6.6645,13.062 5.918,13.486 C6.1905,12.5765 6.06,12.3815 5.9725,12.252 C5.8675,12.096 5.6925,12.003 5.505,12.003 C5.229,12.003 5.005,12.2265 5.005,12.503 C5.005,12.594 5.029,12.679 5.0715,12.7525 C5.021,13.037 4.8025,13.703 4.555,14.3125 C4.478,14.5015 4.524,14.7185 4.6705,14.8605 C4.7655,14.9525 4.891,15.001 5.0185,15.001 C5.087,15.001 5.156,14.987 5.2215,14.958 C5.7915,14.704 7.5285,13.878 8.153,12.995 C11.9585,12.94 15.035,10.2745 15.035,7 Z" id="形状"></path>
            </g>
        </g>
    </g>
</svg>