<?xml version="1.0" encoding="UTF-8"?>
<svg width="16px" height="16px" viewBox="0 0 16 16" version="1.1" xmlns="http://www.w3.org/2000/svg" xmlns:xlink="http://www.w3.org/1999/xlink">
    <title>people</title>
    <g id="页面-1" stroke="none" stroke-width="1" fill="none" fill-rule="evenodd">
        <g id="assets" transform="translate(-1375.000000, -508.000000)" fill-rule="nonzero">
            <g id="people" transform="translate(1374.856487, 508.000000)">
                <rect id="矩形" fill="#000000" opacity="0" x="0" y="0" width="16" height="16"></rect>
                <path d="M10.656,8.656 C11.2395556,8.656 11.8748889,8.73933333 12.562,8.906 C13.2491111,9.07266667 13.8844444,9.34355556 14.468,9.71866667 C15.0515556,10.0937778 15.3433333,10.5208889 15.3433333,11 L15.3433333,12.656 L11.3433333,12.656 L11.3433333,11 C11.3433333,10.0831111 10.9057778,9.31222222 10.0306667,8.68733333 C10.1764444,8.66644444 10.3848889,8.656 10.656,8.656 L10.656,8.656 Z M5.344,8.656 C5.92755555,8.656 6.56288889,8.73933333 7.25,8.906 C7.93711111,9.07266667 8.56733334,9.34355556 9.14066667,9.71866667 C9.71400001,10.0937778 10.0004444,10.5208889 10.0000005,11 L10.0000005,12.656 L0.656,12.656 L0.656,11 C0.656,10.5208889 0.947777776,10.0937778 1.53133333,9.71866667 C2.11488888,9.34355557 2.75022221,9.07266668 3.43733333,8.906 C4.12444444,8.73933332 4.75977778,8.656 5.34333333,8.656 L5.344,8.656 Z M5.34399925,7.344 C4.80222222,7.344 4.33355555,7.146 3.938,6.75 C3.54244445,6.354 3.34444445,5.88533333 3.34399925,5.344 C3.34355555,4.80266667 3.54155555,4.334 3.938,3.938 C4.33444445,3.542 4.80311111,3.344 5.34399925,3.344 C5.88488889,3.344 6.34844444,3.542 6.73466667,3.938 C7.1208889,4.334 7.31355557,4.80266667 7.31266973,5.344 C7.31177778,5.88533333 7.11911111,6.354 6.73466667,6.75 C6.35022223,7.146 5.88666668,7.344 5.34399925,7.344 L5.34399925,7.344 Z M10.6559993,7.344 C10.1142222,7.344 9.64555555,7.146 9.25,6.75 C8.85444445,6.354 8.65644445,5.88533333 8.65599925,5.344 C8.65555555,4.80266667 8.85355555,4.334 9.25,3.938 C9.64644445,3.542 10.1151111,3.344 10.6559993,3.344 C11.1968889,3.344 11.6655556,3.542 12.062,3.938 C12.4584444,4.334 12.6564444,4.80266667 12.6559993,5.344 C12.6555556,5.88533333 12.4575556,6.354 12.062,6.75 C11.6664444,7.146 11.1977778,7.344 10.6559993,7.344 Z" id="形状" fill="#0C0C0E"></path>
            </g>
        </g>
    </g>
</svg>