<?xml version="1.0" encoding="UTF-8"?>
<svg width="16px" height="16px" viewBox="0 0 16 16" version="1.1" xmlns="http://www.w3.org/2000/svg" xmlns:xlink="http://www.w3.org/1999/xlink">
    <title>round_close_fill</title>
    <g id="页面-1" stroke="none" stroke-width="1" fill="none" fill-rule="evenodd">
        <g id="assets" transform="translate(-1519.000000, -508.000000)" fill="#000000" fill-rule="nonzero">
            <g id="round_close_fill" transform="translate(1518.856487, 508.000000)">
                <rect id="矩形" opacity="0" x="0" y="0" width="16" height="16"></rect>
                <path d="M8,1 C4.1405,1 1,4.14 1,8 C1,11.86 4.14,15 8,15 C11.8595,15 15,11.86 15,8 C15,4.14 11.86,1 8,1 Z M10.8555,10.156 C11.0505,10.352 11.05,10.668 10.8545,10.863 C10.757,10.96 10.6295,11.009 10.5015,11.009 C10.373,11.009 10.245,10.96 10.1475,10.862 L7.9975,8.7055 L5.8405,10.8395 C5.743,10.9355 5.616,10.984 5.489,10.984 C5.36,10.984 5.2315,10.9345 5.1335,10.8355 C4.9395,10.639 4.941,10.323 5.1375,10.1285 L7.292,7.9975 L5.1455,5.844 C4.9505,5.6485 4.951,5.332 5.1465,5.137 C5.342,4.9415 5.658,4.9425 5.8535,5.138 L8.003,7.294 L10.16,5.16 C10.356,4.9655 10.673,4.9675 10.867,5.164 C11.0615,5.3605 11.0595,5.677 10.863,5.871 L8.7085,8.002 L10.8555,10.156 Z" id="形状"></path>
            </g>
        </g>
    </g>
</svg>