<?xml version="1.0" encoding="UTF-8"?>
<svg width="16px" height="16px" viewBox="0 0 16 16" version="1.1" xmlns="http://www.w3.org/2000/svg" xmlns:xlink="http://www.w3.org/1999/xlink">
    <title>link</title>
    <g id="页面-1" stroke="none" stroke-width="1" fill="none" fill-rule="evenodd">
        <g id="assets" transform="translate(-1096.000000, -544.000000)" fill-rule="nonzero">
            <g id="link" transform="translate(1096.000000, 544.000000)">
                <rect id="矩形" fill="#000000" opacity="0" x="0" y="0" width="16" height="16"></rect>
                <path d="M6,2 L6,3.33332812 L2.66667188,3.33332812 L2.66667188,12.6666719 L13.3333281,12.6666719 L13.3333281,6.66667187 L14.6666719,6.66667187 L14.6666719,13.3333281 C14.6666719,13.5101405 14.5964334,13.6797111 14.4714082,13.8047363 C14.346383,13.9297616 14.1768124,14 14,14 L2,14 C1.63180729,14 1.33332813,13.7015208 1.33332813,13.3333281 L1.33332813,2.66667188 C1.33332813,2.29847917 1.63180729,2 2,2 L6,2 Z M10.6666719,3.33332813 L10.6666719,0.666671875 L15.3333281,4.66667188 L9.33332812,4.66667188 C8.59695134,4.66667188 8,5.26362321 8,6 L8,10 L6.66667188,10 L6.66667188,6 C6.66667188,4.52724389 7.86057202,3.33333675 9.33332813,3.33332812 L10.6666719,3.33332813 Z" id="形状" fill="#0C0C0E"></path>
            </g>
        </g>
    </g>
</svg>