<?xml version="1.0" encoding="UTF-8"?>
<svg width="271px" height="320px" viewBox="0 0 271 320" version="1.1" xmlns="http://www.w3.org/2000/svg" xmlns:xlink="http://www.w3.org/1999/xlink">
    <title>编组 14</title>
    <g id="页面-1" stroke="none" stroke-width="1" fill="none" fill-rule="evenodd">
        <g id="assets" transform="translate(-1343.000000, -679.000000)">
            <g id="编组-14" transform="translate(1343.000000, 679.000000)">
                <path d="M202.146341,64.7804878 C181.998138,61.5720774 159.053844,59.8600626 135.158706,59.8600626 C113.290441,59.8600626 92.2217494,61.2917727 73.3658537,63.9913223 C73.3702878,63.7023713 73.3744972,63.4134635 73.3873805,63.124534 C74.4270306,28.2446862 103.175921,0.568532008 138.14663,0.781711078 C173.117339,0.994890147 201.525199,29.019468 202.137681,63.9093871 C202.142123,64.2026289 202.146341,64.4915584 202.146341,64.7804878 Z" id="路径" fill="#0FBCC0" fill-rule="nonzero"></path>
                <g id="编组" opacity="0.267938232" transform="translate(73.365854, 0.000000)" fill="#FFFFFF" fill-rule="nonzero">
                    <path d="M73.3658537,0.578863825 C55.1967662,-1.85903836 36.8394182,3.47360812 22.8551518,15.2517739 C8.87088546,27.0299396 0.572385393,44.1480238 0.0216214876,62.3526102 C0.00847927013,62.6415775 0.00425483089,62.9305449 0,63.2195122 C5.62762603,62.4173863 11.4553767,61.7300365 17.4382942,61.1560655 C18.9481631,30.2130321 42.4632191,4.74300798 73.3658537,0.578863825 Z" id="路径"></path>
                </g>
                <path d="M230.311849,70.2946341 C221.024496,67.7633897 211.604398,65.7530307 202.095129,64.2728567 C186.509205,61.8446394 170.796419,60.326498 155.035783,59.7260667 C148.470477,59.456305 141.784299,59.3170732 135.024373,59.3170732 C129.666727,59.3170732 124.352189,59.4040931 119.111403,59.5781329 C103.737689,60.0347922 88.4003925,61.3376911 73.1684271,63.4809756 C61.8929591,65.0419415 50.7268702,67.3176957 39.7369095,70.2946341 C14.1125709,77.4172133 0,86.9632969 0,97.1707317 C0,107.378167 14.1125882,116.92425 39.7369095,124.046829 C57.7575275,129.059176 79.9759063,132.474707 104.185263,134.041065 C114.177863,134.693715 124.508163,135.02439 135.024382,135.02439 C145.575273,135.02439 155.940212,134.689364 165.963245,134.036714 C187.995442,132.605237 208.378974,129.642209 225.43875,125.334724 C225.529632,125.308618 225.616255,125.286863 225.70712,125.265108 C226.858358,124.977942 227.992057,124.677724 229.113075,124.377505 C229.515418,124.264379 229.913532,124.155604 230.311849,124.046829 C230.334223,124.037607 230.357341,124.030329 230.38095,124.025074 C230.761948,123.92065 231.138298,123.811876 231.514856,123.707452 C232.26798,123.489902 233.012242,123.276703 233.743585,123.054802 C233.778237,123.0461 233.808457,123.037398 233.838885,123.028696 C234.474941,122.837253 235.098317,122.645809 235.71704,122.454365 C236.223351,122.293378 236.72543,122.136742 237.223081,121.975756 C237.586755,121.858279 237.945989,121.740802 238.300783,121.623325 C238.560489,121.536305 238.815754,121.453636 239.066787,121.366616 C239.408676,121.25349 239.750599,121.136013 240.088065,121.018537 C240.230914,120.970676 240.373762,120.922815 240.51218,120.870603 C240.836758,120.761828 241.15268,120.648702 241.468602,120.535576 C241.810491,120.413748 242.152414,120.287569 242.489884,120.165742 C242.771354,120.065669 243.052612,119.961245 243.329433,119.856821 C243.563129,119.76545 243.792632,119.67843 244.026345,119.59141 C244.662401,119.352105 245.285776,119.104073 245.900276,118.860443 C246.207543,118.734264 246.514775,118.612436 246.817589,118.486257 C247.116175,118.364429 247.419196,118.238251 247.713558,118.112072 C248.198099,117.907558 248.674118,117.703061 249.141614,117.498581 C249.366655,117.394158 249.596153,117.294085 249.816762,117.198389 C249.985603,117.120071 250.149995,117.046104 250.318845,116.967786 C250.439925,116.915574 250.561222,116.859011 250.678079,116.802448 C251.115073,116.602303 251.547844,116.397806 251.97195,116.193309 C253.599279,115.41013 255.118273,114.609547 256.528932,113.79156 C265.37917,108.696544 270.04878,103.044601 270.04878,97.1707578 C270.04878,86.9632969 255.936171,77.4172133 230.311849,70.2946341 Z M230.078153,123.211438 C212.035979,128.228136 189.756965,131.643667 165.482723,133.196972 C155.611207,133.827867 145.406657,134.154191 135.02439,134.154191 C124.676784,134.154191 114.506678,133.832218 104.665586,133.201323 C80.3524642,131.652369 58.038798,128.236838 39.9706315,123.211438 C14.7530972,116.197634 0.865549563,106.951769 0.865549563,97.1707317 C0.865549563,96.3064826 0.97455826,95.4457184 1.18590356,94.6079955 C3.3928641,85.7841772 16.9689208,77.5259882 39.9706315,71.1300252 C50.8775227,68.1762802 61.9580524,65.9136662 73.1468794,64.3555257 C88.4705133,62.2001121 103.900372,60.8928431 119.366682,60.4396299 C124.525481,60.2699411 129.744718,60.1858219 135.02439,60.1872538 C141.693452,60.1872538 148.288761,60.3221531 154.771654,60.5832128 C170.624054,61.1782778 186.428352,62.7037237 202.103811,65.1517578 C211.530924,66.6253344 220.869914,68.6211281 230.078136,71.1300252 C253.075618,77.5259882 266.647239,85.7798262 268.858636,94.5992935 C269.073425,95.4394081 269.183214,96.3033077 269.183214,97.1707317 C269.183214,106.951769 255.295679,116.197634 230.078136,123.211438 L230.078153,123.211438 Z" id="形状" fill="#3F3D56" fill-rule="nonzero"></path>
                <path d="M270.04878,97.4270437 C270.04878,103.267774 265.28236,108.793691 256.771339,113.729439 C255.355936,114.551335 253.832094,115.355744 252.212917,116.142666 C251.788668,116.34814 251.355761,116.553614 250.918637,116.754716 C250.801752,116.81155 250.680408,116.868383 250.559289,116.920844 C250.390395,116.999536 250.225951,117.073857 250.057048,117.152549 C249.836369,117.248728 249.606824,117.349279 249.381686,117.454176 C248.914118,117.65965 248.437949,117.865124 247.953179,118.070598 C247.658724,118.19738 247.355607,118.324162 247.056927,118.446572 C246.754018,118.573354 246.446671,118.695764 246.139324,118.822546 C245.52463,119.067366 244.901058,119.316558 244.264801,119.557006 C244.031031,119.644442 243.801456,119.731877 243.567669,119.823685 C243.29076,119.928608 243.009414,120.033531 242.727855,120.134082 C242.390278,120.256492 242.048264,120.383274 241.70625,120.505684 C241.390228,120.61935 241.074206,120.733017 240.749525,120.842311 C240.611073,120.894799 240.468179,120.942863 240.325276,120.990952 C239.987704,121.108991 239.64569,121.227029 239.303676,121.340695 C239.052555,121.428131 238.797209,121.511195 238.53743,121.598631 C238.182313,121.716651 237.822966,121.83469 237.459387,121.952746 C236.961587,122.114502 236.459372,122.271886 235.95287,122.433642 C235.333951,122.626001 234.710379,122.818359 234.074122,123.010718 C234.043684,123.019462 234.013455,123.028205 233.978792,123.036949 C233.2472,123.25991 232.502721,123.474128 231.749358,123.692717 C231.372682,123.79764 230.996213,123.906935 230.615094,124.011857 C230.591477,124.017137 230.568352,124.02445 230.545972,124.033716 C230.14752,124.143011 229.74928,124.252306 229.346819,124.365972 C228.229883,124.663254 227.091372,124.964907 225.939787,125.257817 C225.848877,125.279676 225.762226,125.301535 225.671333,125.327765 C209.069302,129.515938 188.7011,132.567446 166.1597,134.040738 C156.28506,134.683391 145.99041,135.02439 135.41463,135.02439 C124.74351,135.02439 114.362192,134.679019 104.409764,134.023251 C44.9974786,130.110501 0.780487805,115.211449 0.780487805,97.4270174 C0.78516559,96.3448858 0.948502564,95.2694188 1.2651837,94.2356125 C1.29118411,94.3099329 1.31718019,94.3798815 1.34762222,94.4542019 C7.52500463,110.839662 51.3657212,124.081806 108.249702,127.312557 C116.964073,127.810919 125.99024,128.068876 135.228402,128.068876 C144.505681,128.068876 153.566295,127.806569 162.315332,127.308185 C219.15172,124.064319 262.949137,110.817803 269.104956,94.4454583 C269.208958,94.1831336 269.299851,93.9208264 269.377636,93.6585366 C269.816554,94.8657615 270.04367,96.1410284 270.04878,97.4270437 L270.04878,97.4270437 Z" id="路径" fill="#979799" fill-rule="nonzero"></path>
                <path d="M39.8048759,92.097561 C32.6159991,92.097561 24.9756098,90.5931514 24.9756098,87.804878 C24.9756098,85.0166047 32.6160078,83.5121951 39.8048759,83.5121951 C46.993744,83.5121951 54.6341463,85.0166047 54.6341463,87.804878 C54.6341463,90.5931514 46.9937526,92.097561 39.8048759,92.097561 Z M39.8048759,84.3525094 C31.574861,84.3525094 25.8395173,86.1720426 25.8395173,87.804878 C25.8395173,89.4377135 31.5748696,91.2572425 39.8048759,91.2572425 C48.0348821,91.2572425 53.7702388,89.4377135 53.7702388,87.804878 C53.7702388,86.1720426 48.0348821,84.3525094 39.8048759,84.3525094 L39.8048759,84.3525094 Z" id="形状" fill="#3F3D56" fill-rule="nonzero"></path>
                <path d="M70.2438484,112.390244 C63.0550235,112.390244 55.4146341,110.885834 55.4146341,108.097561 C55.4146341,105.309288 63.0550322,103.804878 70.2438484,103.804878 C77.432777,103.804878 85.0731707,105.309288 85.0731707,108.097561 C85.0731707,110.885834 77.432777,112.390244 70.2438484,112.390244 Z M70.2438484,104.645192 C62.013894,104.645192 56.2785417,106.464726 56.2785417,108.097561 C56.2785417,109.730396 62.013894,111.549925 70.2438484,111.549925 C78.4738029,111.549925 84.2092632,109.730396 84.2092632,108.097561 C84.2092632,106.464726 78.4738547,104.645192 70.2438484,104.645192 L70.2438484,104.645192 Z" id="形状" fill="#3F3D56" fill-rule="nonzero"></path>
                <path d="M230.243848,92.097561 C223.055024,92.097561 215.414634,90.5931514 215.414634,87.804878 C215.414634,85.0166047 223.055032,83.5121951 230.243848,83.5121951 C237.432777,83.5121951 245.073171,85.0166047 245.073171,87.804878 C245.073171,90.5931514 237.432777,92.097561 230.243848,92.097561 Z M230.243848,84.3525094 C222.013834,84.3525094 216.278542,86.1720426 216.278542,87.804878 C216.278542,89.4377135 222.013842,91.2572425 230.243848,91.2572425 C238.473855,91.2572425 244.209263,89.4377135 244.209263,87.804878 C244.209263,86.1720426 238.473855,84.3525094 230.243848,84.3525094 L230.243848,84.3525094 Z" id="形状" fill="#3F3D56" fill-rule="nonzero"></path>
                <path d="M199.804824,112.390244 C192.615999,112.390244 184.97561,110.885834 184.97561,108.097561 C184.97561,105.309288 192.616008,103.804878 199.804824,103.804878 C206.993753,103.804878 214.634146,105.309288 214.634146,108.097561 C214.634146,110.885834 206.993753,112.390244 199.804824,112.390244 Z M199.804824,104.645192 C191.574809,104.645192 185.839517,106.464726 185.839517,108.097561 C185.839517,109.730396 191.574818,111.549925 199.804824,111.549925 C208.03483,111.549925 213.770239,109.730396 213.770239,108.097561 C213.770239,106.464726 208.03483,104.645192 199.804824,104.645192 L199.804824,104.645192 Z" id="形状" fill="#3F3D56" fill-rule="nonzero"></path>
                <path d="M135.024336,122.536585 C127.835511,122.536585 120.195122,121.032176 120.195122,118.243902 C120.195122,115.455629 127.83552,113.95122 135.024336,113.95122 C142.213265,113.95122 149.853659,115.455629 149.853659,118.243902 C149.853659,121.032176 142.213265,122.536585 135.024336,122.536585 Z M135.024336,114.791534 C126.794321,114.791534 121.059029,116.611067 121.059029,118.243902 C121.059029,119.876738 126.79433,121.696267 135.024336,121.696267 C143.254343,121.696267 148.989751,119.876738 148.989751,118.243902 C148.989751,116.611067 143.254343,114.791534 135.024336,114.791534 L135.024336,114.791534 Z" id="形状" fill="#3F3D56" fill-rule="nonzero"></path>
                <circle id="椭圆形" fill="#2F2E41" fill-rule="nonzero" cx="146.341463" cy="195.512195" r="18.3414634"></circle>
                <polygon id="矩形" fill="#2F2E41" fill-rule="nonzero" transform="translate(135.921223, 211.976924) rotate(-26.600990) translate(-135.921223, -211.976924) " points="130.966137 209.211297 140.876309 209.211297 140.876309 214.742551 130.966137 214.742551"></polygon>
                <ellipse id="椭圆形" fill="#2F2E41" fill-rule="nonzero" transform="translate(130.049079, 213.629357) rotate(-56.601220) translate(-130.049079, -213.629357) " cx="130.049079" cy="213.629357" rx="1.72851913" ry="4.60937136"></ellipse>
                <polygon id="矩形" fill="#2F2E41" fill-rule="nonzero" transform="translate(156.152621, 211.976949) rotate(-63.399010) translate(-156.152621, -211.976949) " points="153.386994 207.021864 158.918248 207.021864 158.918248 216.932035 153.386994 216.932035"></polygon>
                <ellipse id="椭圆形" fill="#2F2E41" fill-rule="nonzero" transform="translate(162.024764, 213.629329) rotate(-33.398780) translate(-162.024764, -213.629329) " cx="162.024764" cy="213.629329" rx="4.60937136" ry="1.72851913"></ellipse>
                <circle id="椭圆形" fill="#FFFFFF" fill-rule="nonzero" cx="144.390244" cy="191.219512" r="6.24390244"></circle>
                <ellipse id="椭圆形" fill="#3F3D56" fill-rule="nonzero" transform="translate(144.805018, 188.205800) rotate(-45.000000) translate(-144.805018, -188.205800) " cx="144.805018" cy="188.2058" rx="2.06555725" ry="2.0801879"></ellipse>
                <path d="M160.771072,175.887901 C161.048467,169.146608 155.162694,163.436681 147.624787,163.134441 C140.086881,162.832202 133.75134,168.052066 133.473928,174.793364 C133.196515,181.534661 138.436324,183.06632 145.974235,183.368585 C153.512146,183.67085 160.493637,182.629195 160.771072,175.887901 Z" id="路径" fill="#0FBCC0" fill-rule="nonzero"></path>
                <ellipse id="椭圆形" fill="#2F2E41" fill-rule="nonzero" transform="translate(164.964898, 197.949655) rotate(-40.645160) translate(-164.964898, -197.949655) " cx="164.964898" cy="197.949655" rx="2.85786615" ry="9.10349164"></ellipse>
                <ellipse id="椭圆形" fill="#2F2E41" fill-rule="nonzero" transform="translate(127.159884, 197.949621) rotate(-49.354840) translate(-127.159884, -197.949621) " cx="127.159884" cy="197.949621" rx="9.10349164" ry="2.85786615"></ellipse>
                <path d="M151.344435,202.738938 C151.769315,204.983187 150.221705,207.133705 147.887752,207.542255 C145.553799,207.950805 143.317323,206.462677 142.892443,204.218428 L142.890935,204.210446 C142.468334,201.965805 144.273201,201.171504 146.607566,200.765158 C148.941931,200.358812 150.921861,200.494298 151.344435,202.738938 Z" id="路径" fill="#FFFFFF" fill-rule="nonzero"></path>
                <path d="M115.512195,214.634146 C115.081153,214.634146 114.731729,214.244601 114.731707,213.764094 L114.731707,162.431028 C114.731707,161.950511 115.081144,161.560976 115.512195,161.560976 C115.943247,161.560976 116.292683,161.950511 116.292683,162.431028 L116.292683,213.764094 C116.292661,214.244601 115.943238,214.634146 115.512195,214.634146 Z" id="路径" fill="#CCCCCC" fill-rule="nonzero"></path>
                <path d="M102.243902,260.682927 C101.81286,260.682927 101.463436,260.294654 101.463415,259.815718 L101.463415,222.525745 C101.463415,222.046799 101.812851,221.658537 102.243902,221.658537 C102.674954,221.658537 103.02439,222.046799 103.02439,222.525745 L103.02439,259.815718 C103.024369,260.294654 102.674945,260.682927 102.243902,260.682927 L102.243902,260.682927 Z" id="路径" fill="#CCCCCC" fill-rule="nonzero"></path>
                <path d="M135.804878,230.243902 C135.373835,230.243902 135.024412,229.854357 135.02439,229.37385 L135.02439,178.040784 C135.02439,177.560267 135.373827,177.170732 135.804878,177.170732 C136.23593,177.170732 136.585366,177.560267 136.585366,178.040784 L136.585366,229.37385 C136.585344,229.854357 136.235921,230.243902 135.804878,230.243902 Z" id="路径" fill="#CCCCCC" fill-rule="nonzero"></path>
                <path d="M123.317073,266.926829 C122.886031,266.926829 122.536607,266.537063 122.536585,266.056285 L122.536585,245.163227 C122.536585,244.682439 122.886022,244.292683 123.317073,244.292683 C123.748125,244.292683 124.097561,244.682439 124.097561,245.163227 L124.097561,266.056285 C124.097539,266.537063 123.748116,266.926829 123.317073,266.926829 Z" id="路径" fill="#CCCCCC" fill-rule="nonzero"></path>
                <path d="M140.487805,160 C140.056762,160 139.707339,159.610234 139.707317,159.129456 L139.707317,138.236398 C139.707317,137.75561 140.056753,137.365854 140.487805,137.365854 C140.918856,137.365854 141.268293,137.75561 141.268293,138.236398 L141.268293,159.129456 C141.268271,159.610234 140.918847,160 140.487805,160 Z" id="路径" fill="#CCCCCC" fill-rule="nonzero"></path>
                <path d="M97.5609756,169.365854 C97.129933,169.365854 96.7805094,168.976088 96.7804878,168.49531 L96.7804878,147.602251 C96.7804878,147.121463 97.1299241,146.731707 97.5609756,146.731707 C97.9920271,146.731707 98.3414634,147.121463 98.3414634,147.602251 L98.3414634,168.49531 C98.3414419,168.976088 97.9920182,169.365854 97.5609756,169.365854 L97.5609756,169.365854 Z" id="路径" fill="#CCCCCC" fill-rule="nonzero"></path>
                <path d="M173.268293,171.707317 C172.83725,171.707317 172.487826,171.317551 172.487805,170.836773 L172.487805,149.943715 C172.487805,149.462927 172.837241,149.073171 173.268293,149.073171 C173.699344,149.073171 174.04878,149.462927 174.04878,149.943715 L174.04878,170.836773 C174.048759,171.317551 173.699335,171.707317 173.268293,171.707317 Z" id="路径" fill="#CCCCCC" fill-rule="nonzero"></path>
                <path d="M170.926829,236.487805 C170.495787,236.487805 170.146363,236.104542 170.146341,235.631786 L170.146341,210.807238 C170.146341,210.334472 170.495778,209.95122 170.926829,209.95122 C171.357881,209.95122 171.707317,210.334472 171.707317,210.807238 L171.707317,235.631786 C171.707296,236.104542 171.357872,236.487805 170.926829,236.487805 Z" id="路径" fill="#CCCCCC" fill-rule="nonzero"></path>
                <path d="M153.756098,258.341463 C153.325055,258.341463 152.975631,257.953191 152.97561,257.474255 L152.97561,220.184282 C152.97561,219.705336 153.325046,219.317073 153.756098,219.317073 C154.187149,219.317073 154.536585,219.705336 154.536585,220.184282 L154.536585,257.474255 C154.536564,257.953191 154.18714,258.341463 153.756098,258.341463 Z" id="路径" fill="#CCCCCC" fill-rule="nonzero"></path>
                <path d="M157.658537,195.121951 C157.227494,195.121951 156.87807,194.732406 156.878049,194.251899 L156.878049,142.918832 C156.878049,142.438316 157.227485,142.04878 157.658537,142.04878 C158.089588,142.04878 158.439024,142.438316 158.439024,142.918832 L158.439024,194.251899 C158.439003,194.732406 158.089579,195.121951 157.658537,195.121951 Z" id="路径" fill="#CCCCCC" fill-rule="nonzero"></path>
                <g id="编组-4" opacity="0.35" transform="translate(207.022403, 260.682927)" fill-rule="nonzero">
                    <path d="M56.5517836,42.8909675 C57.7923531,41.852278 56.1158292,37.8067356 52.8071626,33.8549956 C49.4984961,29.9032557 45.8106116,27.5417617 44.5700422,28.5804512 C43.3294727,29.6191407 45.0059966,33.6646831 48.3146631,37.616423 C51.6233297,41.568163 55.3112141,43.929657 56.5517836,42.8909675 Z" id="椭圆形" fill="#2F2E41"></path>
                    <path d="M48.4157642,38.3970834 C51.6754246,28.6181029 46.3904714,18.0481961 36.611491,14.7885357 C26.8325105,11.5288753 16.2626036,16.8138284 13.0029432,26.5928089 C9.74328284,36.3717894 15.028236,46.9416963 24.8072165,50.2013567 C34.586197,53.461017 45.1561038,48.1760639 48.4157642,38.3970834 Z" id="椭圆形" fill="#2F2E41"></path>
                    <rect id="矩形" fill="#2F2E41" x="33.3678409" y="46.8292683" width="5.46341463" height="10.1463415"></rect>
                    <rect id="矩形" fill="#2F2E41" x="21.6605239" y="46.8292683" width="5.46341463" height="10.1463415"></rect>
                    <ellipse id="椭圆形" fill="#2F2E41" cx="34.1483287" cy="57.3658537" rx="4.68292683" ry="1.95121951"></ellipse>
                    <ellipse id="椭圆形" fill="#2F2E41" cx="22.4410117" cy="57.3658537" rx="4.68292683" ry="1.95121951"></ellipse>
                    <path d="M25.0453407,9.26643911 C26.7050802,2.55964916 34.0314531,-1.38714969 41.4092464,0.451009635 C48.7870398,2.28916896 53.4224607,9.21625186 51.7627211,15.9230461 C50.1029815,22.6298404 44.596497,22.6514891 37.2186993,20.8132951 C29.8409016,18.9751011 23.3855924,15.9732464 25.0453407,9.26643911 Z" id="路径" fill="#979799"></path>
                    <ellipse id="椭圆形" fill="#2F2E41" transform="translate(9.687252, 23.834659) rotate(-64.625740) translate(-9.687252, -23.834659) " cx="9.68725198" cy="23.8346589" rx="2.9296283" ry="9.33210862"></ellipse>
                    <circle id="椭圆形" fill="#FFFFFF" cx="27.9044263" cy="28.8780488" r="6.24390244"></circle>
                    <circle id="椭圆形" fill="#3F3D56" cx="25.172719" cy="26.1463415" r="1.95121951"></circle>
                    <circle id="椭圆形" fill="#FFFFFF" cx="27.5141824" cy="41.7560976" r="2.73170732"></circle>
                </g>
                <path d="M263.907563,320 L6.09243697,320 C5.48910069,320 5,319.776142 5,319.5 C5,319.223858 5.48910069,319 6.09243697,319 L263.907563,319 C264.510899,319 265,319.223858 265,319.5 C265,319.776142 264.510899,320 263.907563,320 Z" id="路径" fill="#979799" fill-rule="nonzero"></path>
                <text id="No-Data" font-family="PingFangSC-Regular, PingFang SC" font-size="24" font-weight="normal" fill="#B2B2B9">
                    <tspan x="89" y="307">No Data</tspan>
                </text>
            </g>
        </g>
    </g>
</svg>