<svg xmlns="http://www.w3.org/2000/svg" class="svg-logo" width="2400" height="2400" viewBox="0 0 630 430" style="height: auto;"><rect width="630" height="630" y="-100" rx="0" ry="0" fill="transparent" fill-opacity="0"></rect><g data-element="wrapper" transform="translate(178.21772536828217 121.64067511215313) scale(0.43422946430963055)"><g data-element="container" transform="translate(-8.561660557577056 -108.56166055757706) scale(1.0785388685252568)"><g ><path id="fill_x5F_1" d="M200.824,60.567L60.567,200.824v198.352l140.257,140.257h198.352l140.257-140.257V200.824
	L399.176,60.567H200.824z" fill="transparent" fill-opacity="0"></path>
<path id="frame_x5F_1_148_" d="M300.016,0L87.88,87.857L0,299.984L87.857,512.12L299.984,600l212.137-87.857L600,300.016
	L512.143,87.88L300.016,0z M300.016,20.894l71.397,29.578H228.596L300.016,20.894z M102.653,102.631l71.4-29.57L73.067,174.047
	L102.653,102.631z M50.472,371.404l-29.578-71.419l29.578-71.397V371.404z M102.631,497.347l-29.57-71.4l100.986,100.986
	L102.631,497.347z M299.984,579.106l-71.397-29.578h142.816L299.984,579.106z M497.347,497.369l-71.4,29.57l100.986-100.986
	L497.347,497.369z M549.528,228.596l29.578,71.419l-29.578,71.397V228.596z M530.224,395.362L395.362,530.224H204.638
	L69.776,395.362V204.638L204.638,69.776h190.724l134.862,134.862V395.362z M425.953,73.067l71.416,29.586l29.57,71.4L425.953,73.067
	z" fill="#59291e" fill-opacity="1"></path></g></g><g ><g data-element="icon" transform="scale(0.5714285714285714) translate(251.25024933445837 29.388967293608523)"><path id="color_x5F_2_15_" d="M389.027,366.273c6.933-10.212,10.513-20.532,12.332-28.955    c2.746,9.255,5.249,21.512,5.252,32.266C401.814,368.181,395.304,366.633,389.027,366.273z M299.972,385.145l-60.878,35.168    c0.166,1.049,14.965,90.524-6.181,110.637c4.235,0.576,8.763,1.838,13.535,4.028c16.909,7.757,27.294,3.455,31.062,1.167    c0.692-40.686-32.458-114.203-32.458-114.203s54.92-36.797,76.317-26.715c-0.564-1.388-2.102-8.528-2.263-11.33    C311.909,383.37,304.043,384.355,299.972,385.145z M255.451,160.947c1.075-1.48,2.02-2.967,2.837-4.457l-4.117-0.173    C254.119,157.465,254.377,159.023,255.451,160.947z M510.323,554.407c0,4.654-41.551,35.376-210.323,35.376    c-177.006,0-210.323-30.722-210.323-35.376c0-6.89,24.354-20.197,91.448-28.62l-1.273-10.137    c-51.795,3.699-79.937,18.002-83.636,19.838L274.951,31.323c8.365-23.595,41.733-23.595,50.098,0l178.737,504.173    c-1.39-0.689-33.256-11.679-54.637-15.491l-1.794,10.059C497.163,538.943,510.323,549.87,510.323,554.407z M421.27,424.6    c1.951,1.784,5.011,1.855,6.836-0.275c1.417-1.412,2.832-2.822,4.249-4.233c1.831-1.693,2.015-4.958,0.117-6.694    c-1.951-1.784-5.011-1.855-6.837,0.275c-1.417,1.412-2.832,2.822-4.249,4.233C419.556,419.599,419.372,422.865,421.27,424.6z     M421.342,436.928c1.411,1.417,2.822,2.833,4.233,4.25c1.693,1.831,4.958,2.014,6.694,0.117c1.784-1.951,1.855-5.011-0.275-6.836    c-1.412-1.417-2.822-2.832-4.233-4.25c-1.693-1.831-4.959-2.014-6.694-0.116C419.283,432.042,419.212,435.102,421.342,436.928z     M415.576,430.295c-1.951-1.784-5.011-1.855-6.836,0.275c-1.417,1.412-2.833,2.822-4.25,4.234c-1.831,1.693-2.014,4.958-0.117,6.694    c1.951,1.784,5.011,1.855,6.836-0.275c1.417-1.412,2.832-2.822,4.25-4.234C417.29,435.295,417.474,432.03,415.576,430.295z     M415.097,417.561c-1.412-1.417-2.822-2.832-4.233-4.249c-1.693-1.831-4.959-2.014-6.694-0.117    c-1.784,1.951-1.855,5.011,0.275,6.836c1.411,1.417,2.822,2.833,4.233,4.25c1.693,1.831,4.958,2.014,6.694,0.116    C417.156,422.446,417.227,419.386,415.097,417.561z M339.518,170.188c0.103,2.301,1.945,4.231,4.382,4.043    c1.743,0.003,3.484,0.007,5.227,0.01c2.171,0.085,4.297-1.814,4.197-4.053c-0.103-2.301-1.945-4.231-4.382-4.043    c-1.743-0.003-3.484-0.007-5.227-0.01C341.543,166.05,339.418,167.95,339.518,170.188z M336.259,173.697    c-2.301,0.103-4.231,1.945-4.043,4.382c-0.003,1.743-0.007,3.484-0.01,5.227c-0.085,2.171,1.814,4.297,4.053,4.197    c2.301-0.103,4.231-1.945,4.043-4.382c0.003-1.743,0.007-3.484,0.01-5.228C340.397,175.722,338.498,173.597,336.259,173.697z     M332.206,162.483c-0.085,2.171,1.814,4.297,4.053,4.197c2.301-0.103,4.231-1.945,4.043-4.382c0.003-1.743,0.007-3.484,0.01-5.227    c0.085-2.172-1.814-4.297-4.053-4.197c-2.302,0.103-4.231,1.945-4.043,4.383C332.213,158.998,332.21,160.74,332.206,162.483z     M318.694,170.188c0.103,2.301,1.945,4.231,4.382,4.043c1.743,0.003,3.484,0.007,5.227,0.01c2.171,0.085,4.297-1.814,4.197-4.053    c-0.103-2.301-1.945-4.231-4.382-4.043c-1.743-0.003-3.484-0.007-5.227-0.01C320.719,166.05,318.593,167.95,318.694,170.188z     M298.047,93.025c-0.854,0.171-4.458,3.364-5.513,4.42c-1.753,1.753-1.884,4.964,0,6.693c1.889,1.734,4.823,1.871,6.693,0    c1.056-1.056,2.112-2.112,3.168-3.167c0.636-0.636,1.051-1.466,1.241-2.346c0.171,0.854,0.577,1.67,1.252,2.346    c1.056,1.056,2.112,2.112,3.167,3.167c1.753,1.753,4.964,1.884,6.693,0c1.734-1.889,1.871-4.823,0-6.693    c-1.056-1.056-4.634-4.219-5.513-4.409c0.854-0.171,4.457-3.364,5.513-4.42c1.753-1.753,1.884-4.964,0-6.693    c-1.889-1.734-4.823-1.871-6.693,0c-1.056,1.056-4.219,4.634-4.409,5.513c-0.171-0.854-3.364-4.458-4.42-5.513    c-1.753-1.753-4.964-1.884-6.693,0c-1.734,1.889-1.871,4.823,0,6.693C293.589,89.671,297.167,92.835,298.047,93.025z     M214.784,358.68c0.118,2.641,2.232,4.855,5.029,4.639c2,0.004,3.998,0.008,5.998,0.011c2.492,0.098,4.931-2.082,4.816-4.651    c-0.118-2.641-2.232-4.855-5.029-4.639c-2-0.004-3.998-0.008-5.998-0.011C217.108,353.932,214.669,356.111,214.784,358.68z     M206.406,367.735c-0.004,2-0.008,3.998-0.011,5.998c-0.098,2.492,2.082,4.931,4.651,4.815c2.641-0.118,4.855-2.232,4.639-5.029    c0.004-2,0.008-3.998,0.011-5.998c0.098-2.491-2.082-4.93-4.651-4.815C208.404,362.825,206.19,364.938,206.406,367.735z     M206.406,343.84c-0.004,2-0.008,3.998-0.011,5.998c-0.098,2.492,2.082,4.931,4.651,4.816c2.641-0.118,4.855-2.232,4.639-5.029    c0.004-2,0.008-3.998,0.011-5.998c0.098-2.492-2.082-4.931-4.651-4.816C208.404,338.929,206.19,341.043,206.406,343.84z     M190.889,358.68c0.118,2.641,2.232,4.855,5.029,4.639c2,0.004,3.998,0.008,5.998,0.011c2.492,0.098,4.931-2.082,4.815-4.651    c-0.118-2.641-2.232-4.855-5.029-4.639c-2-0.004-3.998-0.008-5.998-0.011C193.212,353.932,190.774,356.111,190.889,358.68z     M186.967,458.244c0.725,0.483,1.589,0.773,2.544,0.773c1.493,0,2.986,0,4.48,0c2.479,0,4.842-2.178,4.733-4.733    c-0.109-2.562-2.087-4.733-4.733-4.733c-1.493,0-6.26,0.293-7.016,0.781c0.483-0.725,0.773-5.531,0.773-7.024    c0-2.479-2.178-4.842-4.733-4.733c-2.562,0.109-4.733,2.087-4.733,4.733c0,1.493,0.293,6.26,0.781,7.016    c-0.725-0.483-5.531-0.773-7.024-0.773c-2.479,0-4.842,2.178-4.733,4.733c0.11,2.562,2.087,4.733,4.733,4.733    c1.493,0,6.26-0.293,7.016-0.781c-0.483,0.725-0.773,5.531-0.773,7.024c0,2.479,2.178,4.842,4.733,4.733    c2.563-0.11,4.733-2.087,4.733-4.733c0-1.493,0-2.986,0-4.48C187.748,459.881,187.455,459,186.967,458.244z M194.362,524.253    c7.146-0.762,14.61-1.454,22.188-2.056l-0.81-10.184c-7.668,0.61-15.225,1.31-22.461,2.082L194.362,524.253z M419.81,548.642    c-3.619-4.794-7.391-7.038-11.36-7.759l4.456-1.324c-14.273-48.05-73.637-146.569-77.991-153.989l4.51-4.51    c-2.706-2.706-6.23-4.502-10.088-5.667c1.284-20.603,10.921-44.031,13.962-50.976c17.691-8.712,49.647-2.037,49.647-2.037    c-0.253,7.738-2.536,28.647-18.919,46.414c-18.145-1.666-22.944,14.115-22.944,14.115l17.098,15.43l13.82-14.887    c-7.767,2.39-11.689,2.826-13.659,2.645l-5.355-5.557c14.008-8.645,52.724,3.01,52.724,3.01s1.128-51.84-12.738-67.26l-57.317-24.51    c3.092-0.692,6.399-1.13,9.929-1.297l-0.481-10.204c-3.436,0.162-6.703,0.553-9.818,1.144c0,0,13.319-19.865,2.194-35.484    c-4.053-5.691-10.187-9.565-18.811-10.041c-22.508-1.243-22.792-15.003-21.043-19.522l-9.528-3.687    c-6.58,18.902,6.367,26.503,10.922,28.7l-9.193,0.196c0.088,4.104-9.648,39.22-9.648,39.22l9.772,8.74    c-2.963,2.463-6.699,4.783-9.381,4.412c-16.442-48.841-21.588-102.25-16.173-166.697l-6.406-0.855    c-0.571,6.801-4.8,13.482-5.14,20.053l-14.589-0.613c0,0-6.817,13.683,0.193,23.026c-7.971,7.845-12.704,24.679-12.704,24.679    c0.572-0.454,25.207-23.056,26.396-24.553c-0.374,35.037,2.855,66.909,9.833,96.849c-13.919-25.87-22.455-53.232-26.922-70.272    l-9.883,2.591c6.33,24.145,20.608,68.384,46.571,101.571c0.326,0.942,0.658,1.882,0.992,2.821    c2.815,12.094,12.2,54.427,10.607,74.621l-65.518,37.848c0,0,17.379,93.428-5.296,111.773l2.6,3.837    c-11.777,0.681-20.415,6.533-24.281,10.969l7.68,6.737c26.988-26.159,51.903,18.693,82.309-9.239c0,0-21.454-95.693-32.714-112.961    c21.918-12.592,57.22-42.388,74.437-1.716c13.64,37.502,32.968,98.211,25.413,123.099l8.723,2.648    c-18.307,1.53-19.508-7.473-19.516-7.592l0.004,0.102l-10.214,0.217c0.016,0.744,0.862,24.809,33.163,17.099    c9.683-2.311,37.517-10.505,41.523-5.201L419.81,548.642z M435.025,517.695c-6.049-0.908-12.419-1.763-18.933-2.542l-1.213,10.145    c6.413,0.767,12.682,1.608,18.632,2.5L435.025,517.695z M367.882,550.005c0.211-0.032,26.141-9.54,34.716-9.218    c-14.025-46.162-63.262-127.886-63.525-128.323C340.121,415.255,375.686,522.892,367.882,550.005z M363.008,310.007l-30.765-12.715    c-18.249,9.558-17.24,39.739-17.222,39.941l-10.178,0.886c-0.355-39.747,27.88-53.711,27.88-53.711l7.709-17.042    c0.413-1.614,1.074-9.47-1.463-15.776c-2.84-7.06-24.209-7.638-28.932-9.732c-0.104,4.661-2.792,15.684-5.272,24.93    c1.498-2.141,3.09-5.302,4.392-8.319l0.271-5.414c2.449,0.122,14.939,0.927,20.289,4.748l-4.156,5.82    c-1.682-1.202-5.642-2.134-9.651-2.729c-1.891,4.491-5.03,10.861-8.576,13.628l-3.463-4.438c-0.787,2.867-1.514,5.432-2.08,7.4    l12.823,11.467c0,0-11.859,13.286-20.51,14.971c0.423,1.135,9.994,50.977,9.584,70.298c4.181-0.53,9.799-0.958,15.544-0.564    c1.946-26.092,16.679-57.626,16.679-57.626S349.651,311.592,363.008,310.007z" fill="#59291e" fill-opacity="1"></path> <path id="color_x5F_1_18_" d="M333.091,23.375c-11.053-31.167-55.129-31.167-66.181,0C205.359,196.939,79.46,552.227,79.46,554.407    C79.46,562.185,82.083,600,300,600c202.486,0,220.54-37.815,220.54-45.593C520.54,552.22,394.641,196.938,333.091,23.375z     M300,589.784c-177.006,0-210.323-30.722-210.323-35.376c0-6.89,24.354-20.197,91.448-28.62l-1.273-10.137    c-51.795,3.699-79.937,18.002-83.636,19.838L274.951,31.323c8.365-23.595,41.733-23.595,50.098,0l178.737,504.173    c-1.39-0.689-33.256-11.679-54.637-15.491l-1.794,10.059c49.808,8.879,62.968,19.806,62.968,24.344    C510.323,559.062,468.772,589.784,300,589.784z M206.394,373.733c0.004-2,0.008-3.998,0.011-5.998    c-0.215-2.797,1.999-4.91,4.639-5.028c2.569-0.115,4.748,2.324,4.651,4.815c-0.004,2-0.008,3.998-0.011,5.998    c0.215,2.797-1.999,4.91-4.639,5.029C208.476,378.664,206.297,376.225,206.394,373.733z M206.406,343.84    c-0.216-2.797,1.999-4.911,4.639-5.029c2.569-0.115,4.748,2.324,4.651,4.816c-0.004,2-0.008,3.998-0.011,5.998    c0.215,2.797-1.999,4.91-4.639,5.029c-2.569,0.115-4.748-2.324-4.651-4.816C206.398,347.838,206.402,345.84,206.406,343.84z     M190.889,358.68c-0.115-2.569,2.324-4.748,4.815-4.651c2,0.004,3.998,0.008,5.998,0.011c2.797-0.215,4.91,1.999,5.029,4.639    c0.115,2.569-2.324,4.748-4.815,4.651c-2-0.004-3.998-0.008-5.998-0.011C193.12,363.535,191.007,361.321,190.889,358.68z     M214.784,358.68c-0.115-2.569,2.324-4.748,4.815-4.651c2,0.004,3.998,0.008,5.998,0.011c2.797-0.215,4.91,1.999,5.029,4.639    c0.115,2.569-2.324,4.748-4.816,4.651c-2-0.004-3.998-0.008-5.998-0.011C217.016,363.535,214.902,361.321,214.784,358.68z     M340.312,177.894c-0.003,1.743-0.007,3.484-0.01,5.228c0.188,2.438-1.742,4.279-4.043,4.382c-2.239,0.1-4.138-2.025-4.053-4.197    c0.003-1.743,0.007-3.484,0.01-5.227c-0.188-2.437,1.742-4.279,4.043-4.382C338.498,173.597,340.397,175.722,340.312,177.894z     M332.206,162.483c0.003-1.743,0.007-3.484,0.01-5.227c-0.188-2.437,1.742-4.279,4.043-4.383c2.239-0.1,4.138,2.025,4.053,4.197    c-0.003,1.743-0.007,3.484-0.01,5.227c0.188,2.438-1.742,4.279-4.043,4.382C334.021,166.779,332.121,164.654,332.206,162.483z     M318.694,170.188c-0.1-2.239,2.025-4.138,4.197-4.053c1.743,0.003,3.484,0.007,5.227,0.01c2.437-0.188,4.279,1.742,4.382,4.043    c0.1,2.239-2.025,4.138-4.197,4.053c-1.743-0.003-3.484-0.007-5.227-0.01C320.639,174.419,318.797,172.49,318.694,170.188z     M339.518,170.188c-0.1-2.239,2.025-4.138,4.197-4.053c1.743,0.003,3.484,0.007,5.227,0.01c2.437-0.188,4.279,1.742,4.382,4.043    c0.1,2.239-2.025,4.138-4.197,4.053c-1.743-0.003-3.484-0.007-5.227-0.01C341.463,174.419,339.621,172.49,339.518,170.188z     M415.576,430.295c1.898,1.735,1.714,5.001-0.116,6.693c-1.417,1.412-2.833,2.822-4.25,4.234c-1.825,2.13-4.885,2.059-6.836,0.275    c-1.898-1.735-1.714-5.001,0.117-6.694c1.417-1.412,2.833-2.822,4.25-4.234C410.565,428.44,413.625,428.511,415.576,430.295z     M421.27,424.6c-1.898-1.735-1.714-5.001,0.117-6.694c1.417-1.411,2.832-2.822,4.249-4.233c1.825-2.13,4.885-2.059,6.837-0.275    c1.898,1.735,1.714,5.001-0.117,6.694c-1.417,1.412-2.832,2.822-4.249,4.233C426.281,426.455,423.221,426.384,421.27,424.6z     M415.097,417.561c2.13,1.826,2.059,4.885,0.275,6.836c-1.735,1.898-5.001,1.714-6.694-0.116c-1.412-1.417-2.822-2.833-4.233-4.25    c-2.13-1.825-2.059-4.885-0.275-6.836c1.735-1.898,5.001-1.714,6.694,0.117C412.275,414.728,413.685,416.144,415.097,417.561z     M421.342,436.928c-2.13-1.825-2.059-4.885-0.275-6.836c1.735-1.898,5.001-1.714,6.694,0.116c1.412,1.417,2.822,2.833,4.233,4.25    c2.13,1.826,2.059,4.885,0.275,6.836c-1.735,1.898-5.001,1.714-6.694-0.117C424.164,439.76,422.754,438.345,421.342,436.928z     M292.534,97.445c1.056-1.056,4.659-4.249,5.513-4.42c-0.88-0.19-4.458-3.353-5.513-4.409c-1.871-1.871-1.734-4.804,0-6.693    c1.729-1.884,4.94-1.753,6.693,0c1.056,1.056,4.249,4.659,4.42,5.513c0.19-0.88,3.353-4.458,4.409-5.513    c1.871-1.871,4.804-1.734,6.693,0c1.884,1.729,1.753,4.94,0,6.693c-1.056,1.056-4.659,4.249-5.513,4.42    c0.88,0.19,4.457,3.353,5.513,4.409c1.871,1.871,1.734,4.804,0,6.693c-1.729,1.884-4.94,1.753-6.693,0    c-1.056-1.056-2.112-2.112-3.167-3.167c-0.676-0.676-1.081-1.492-1.252-2.346c-0.19,0.88-0.605,1.71-1.241,2.346    c-1.056,1.056-2.112,2.112-3.168,3.167c-1.871,1.871-4.804,1.734-6.693,0C290.65,102.409,290.781,99.198,292.534,97.445z     M189.512,459.017c-0.956,0-1.819-0.291-2.544-0.773c0.488,0.756,0.781,1.637,0.781,2.537c0,1.493,0,2.986,0,4.48    c0,2.646-2.17,4.623-4.733,4.733c-2.555,0.109-4.733-2.254-4.733-4.733c0-1.493,0.291-6.299,0.773-7.024    c-0.756,0.488-5.523,0.781-7.016,0.781c-2.646,0-4.623-2.171-4.733-4.733c-0.109-2.555,2.254-4.733,4.733-4.733    c1.493,0,6.299,0.29,7.024,0.773c-0.488-0.756-0.781-5.523-0.781-7.016c0-2.646,2.171-4.623,4.733-4.733    c2.555-0.109,4.733,2.254,4.733,4.733c0,1.493-0.29,6.299-0.773,7.024c0.756-0.487,5.523-0.781,7.016-0.781    c2.646,0,4.623,2.17,4.733,4.733c0.109,2.555-2.254,4.733-4.733,4.733C192.498,459.017,191.005,459.017,189.512,459.017z     M408.45,540.883l4.456-1.324c-14.273-48.05-73.637-146.569-77.991-153.989l4.51-4.51c-2.706-2.706-6.23-4.502-10.088-5.667    c1.284-20.603,10.921-44.031,13.962-50.976c17.691-8.712,49.647-2.037,49.647-2.037c-0.253,7.738-2.536,28.647-18.919,46.414    c-18.145-1.666-22.944,14.115-22.944,14.115l17.098,15.43l13.82-14.887c-7.767,2.39-11.689,2.826-13.659,2.645l-5.355-5.557    c14.008-8.645,52.724,3.01,52.724,3.01s1.128-51.84-12.738-67.26l-57.317-24.51c3.092-0.692,6.399-1.13,9.929-1.297l-0.481-10.204    c-3.436,0.162-6.703,0.553-9.818,1.144c0,0,13.319-19.865,2.194-35.484c-4.053-5.691-10.187-9.565-18.811-10.041    c-22.508-1.243-22.792-15.003-21.043-19.522l-9.528-3.687c-6.58,18.902,6.367,26.503,10.922,28.7l-9.193,0.196    c0.088,4.104-9.648,39.22-9.648,39.22l9.772,8.74c-2.963,2.463-6.699,4.783-9.381,4.412    c-16.442-48.841-21.588-102.25-16.173-166.697l-6.406-0.855c-0.571,6.801-4.8,13.482-5.14,20.053l-14.589-0.613    c0,0-6.817,13.683,0.193,23.026c-7.971,7.845-12.704,24.679-12.704,24.679c0.572-0.454,25.207-23.056,26.396-24.553    c-0.374,35.037,2.855,66.909,9.833,96.849c-13.919-25.87-22.455-53.232-26.922-70.272l-9.883,2.591    c6.33,24.145,20.608,68.384,46.571,101.571c0.326,0.942,0.658,1.882,0.992,2.821c2.815,12.094,12.2,54.427,10.607,74.621    l-65.518,37.848c0,0,17.379,93.428-5.296,111.773l2.6,3.837c-11.777,0.681-20.415,6.533-24.281,10.969l7.68,6.737    c26.988-26.159,51.903,18.693,82.309-9.239c0,0-21.454-95.693-32.714-112.961c21.918-12.592,57.22-42.388,74.437-1.716    c13.64,37.502,32.968,98.211,25.413,123.099l8.723,2.648c-18.307,1.53-19.508-7.473-19.516-7.592l0.004,0.102l-10.214,0.217    c0.016,0.744,0.862,24.809,33.163,17.099c9.683-2.311,37.517-10.505,41.523-5.201l8.153-6.156    C416.19,543.848,412.418,541.604,408.45,540.883z M406.611,369.584c-4.797-1.404-11.307-2.951-17.584-3.311    c6.933-10.212,10.513-20.532,12.332-28.955C404.105,346.573,406.609,358.83,406.611,369.584z M255.451,160.947    c-1.074-1.923-1.332-3.482-1.28-4.63l4.117,0.173C257.471,157.98,256.526,159.466,255.451,160.947z M245.052,421.942    c0,0,33.15,73.517,32.458,114.203c-3.768,2.288-14.153,6.59-31.062-1.167c-4.772-2.19-9.3-3.452-13.535-4.028    c21.145-20.113,6.346-109.588,6.181-110.637l60.878-35.168c4.071-0.79,11.936-1.775,19.133-1.248c0.161,2.802,1.7,9.942,2.263,11.33    C299.972,385.145,245.052,421.942,245.052,421.942z M319.234,373.656c-5.746-0.394-11.363,0.034-15.544,0.564    c0.41-19.322-9.161-69.163-9.584-70.298c8.651-1.685,20.51-14.971,20.51-14.971l-12.823-11.467c0.566-1.968,1.293-4.533,2.08-7.4    l3.463,4.438c3.546-2.766,6.685-9.137,8.576-13.628c4.009,0.595,7.968,1.528,9.651,2.729l4.156-5.82    c-5.35-3.821-17.84-4.626-20.289-4.748l-0.271,5.414c-1.302,3.018-2.894,6.178-4.392,8.319c2.479-9.246,5.168-20.268,5.272-24.93    c4.723,2.094,26.092,2.672,28.932,9.732c2.536,6.306,1.876,14.162,1.463,15.776l-7.709,17.042c0,0-28.236,13.964-27.88,53.711    l10.178-0.886c-0.018-0.202-1.027-30.383,17.222-39.941l30.765,12.715c-13.357,1.585-27.096,6.023-27.096,6.023    S321.181,347.564,319.234,373.656z M367.882,550.005c7.803-27.113-27.762-134.75-28.809-137.541    c0.263,0.437,49.5,82.162,63.525,128.323C394.023,540.464,368.093,549.973,367.882,550.005z M216.55,522.197    c-7.577,0.603-15.042,1.294-22.188,2.056l-1.083-10.159c7.236-0.772,14.793-1.473,22.461-2.082L216.55,522.197z M416.091,515.153    c6.514,0.779,12.884,1.634,18.933,2.542l-1.515,10.103c-5.95-0.892-12.219-1.733-18.632-2.5L416.091,515.153z" fill="#ffa044" fill-opacity="1"></path></g><path d="M192.86 388.77L192.86 395.21Q192.86 396.54 191.92 397.49Q190.98 398.43 189.64 398.43L189.64 398.43L176.76 398.43L176.76 395.21L189.18 395.21L189.18 388.77L179.98 388.77Q178.65 388.77 177.71 387.83Q176.76 386.88 176.76 385.55L176.76 385.55L176.76 379.11Q176.76 377.77 177.71 376.83Q178.65 375.89 179.98 375.89L179.98 375.89L192.86 375.89L192.86 379.11L180.44 379.11L180.44 385.55L189.64 385.55Q190.98 385.55 191.92 386.49Q192.86 387.43 192.86 388.77L192.86 388.77ZM215.40 382.33L215.40 398.43L212.18 398.43L212.18 396.13L209.88 398.43L202.52 398.43Q201.19 398.43 200.25 397.49Q199.30 396.54 199.30 395.21L199.30 395.21L199.30 382.33L202.52 382.33L202.52 395.67L212.18 395.67L212.18 382.33L215.40 382.33ZM237.94 385.55L237.94 395.21Q237.94 396.54 237.00 397.49Q236.06 398.43 234.72 398.43L234.72 398.43L225.06 398.43L225.06 408.09L221.84 408.09L221.84 382.33L225.06 382.33L225.06 384.63L227.36 382.33L234.72 382.33Q236.06 382.33 237.00 383.27Q237.94 384.21 237.94 385.55L237.94 385.55ZM227.36 395.67L234.72 395.67L234.72 385.09L225.06 385.09L225.06 397.97L227.36 395.67ZM260.48 395.67L260.48 398.43L247.60 398.43Q246.27 398.43 245.33 397.49Q244.38 396.54 244.38 395.21L244.38 395.21L244.38 385.55Q244.38 384.21 245.33 383.27Q246.27 382.33 247.60 382.33L247.60 382.33L257.26 382.33Q258.60 382.33 259.54 383.27Q260.48 384.21 260.48 385.55L260.48 385.55L260.48 388.77L257.26 391.99L248.06 391.99L250.82 389.23L257.26 389.23L257.26 385.09L247.60 385.09L247.60 395.67L260.48 395.67ZM278.42 385.55L278.42 388.77L275.20 388.77L275.20 385.09L268.76 385.09L268.76 398.43L265.54 398.43L265.54 382.33L268.76 382.33L268.76 384.63L271.06 382.33L275.20 382.33Q276.54 382.33 277.48 383.27Q278.42 384.21 278.42 385.55L278.42 385.55ZM300.50 388.77L300.50 391.99L288.08 391.99L288.08 398.43L284.40 398.43L284.40 382.33L287.62 379.11L284.40 379.11L284.40 375.89L300.50 375.89L300.50 379.11L288.08 379.11L288.08 391.53L290.84 388.77L300.50 388.77ZM321.43 385.55L321.43 398.43L318.21 398.43L318.21 396.08L315.45 398.43L308.55 398.43Q307.22 398.43 306.28 397.49Q305.33 396.54 305.33 395.21L305.33 395.21L305.33 391.99Q305.33 390.65 306.28 389.71Q307.22 388.77 308.55 388.77L308.55 388.77L317.75 388.77L314.99 391.48L308.55 391.48L308.55 395.67L318.21 395.67L318.21 385.09L305.33 385.09L308.09 382.33L318.21 382.33Q319.55 382.33 320.49 383.27Q321.43 384.21 321.43 385.55L321.43 385.55ZM343.97 385.55L343.97 398.43L340.75 398.43L340.75 385.09L331.09 385.09L331.09 398.43L327.87 398.43L327.87 382.33L331.09 382.33L331.09 384.63L333.39 382.33L340.75 382.33Q342.09 382.33 343.03 383.27Q343.97 384.21 343.97 385.55L343.97 385.55ZM352.94 382.33L363.52 382.33L360.72 385.09L352.94 385.09L352.94 388.77L359.38 388.77Q360.72 388.77 361.66 389.71Q362.60 390.65 362.60 391.99L362.60 391.99L362.60 395.21Q362.60 396.54 361.66 397.49Q360.72 398.43 359.38 398.43L359.38 398.43L349.72 398.43L349.72 395.67L359.38 395.67L359.38 391.53L352.94 391.53Q351.61 391.53 350.67 390.59Q349.72 389.64 349.72 388.31L349.72 388.31L349.72 385.55Q349.72 384.21 350.67 383.27Q351.61 382.33 352.94 382.33L352.94 382.33ZM397.79 379.11L397.79 395.21Q397.79 396.50 396.83 397.46Q395.86 398.43 394.57 398.43L394.57 398.43L378.47 398.43L378.47 382.33L381.69 379.11L378.47 379.11L378.47 375.89L394.57 375.89Q395.86 375.89 396.83 376.85Q397.79 377.82 397.79 379.11L397.79 379.11ZM384.91 395.21L394.11 395.21L394.11 379.11L382.15 379.11L382.15 397.97L384.91 395.21ZM425.16 375.89L425.16 398.43L421.48 398.43L421.48 391.99L409.52 391.99L409.52 398.43L405.84 398.43L405.84 379.11Q405.84 377.77 406.79 376.83Q407.73 375.89 409.06 375.89L409.06 375.89L425.16 375.89ZM412.28 388.77L421.48 388.77L421.48 379.11L409.52 379.11L409.52 391.53L412.28 388.77ZM452.53 379.11L452.53 395.21Q452.53 396.54 451.59 397.49Q450.65 398.43 449.31 398.43L449.31 398.43L436.43 398.43Q435.10 398.43 434.16 397.49Q433.21 396.54 433.21 395.21L433.21 395.21L433.21 379.11Q433.21 377.77 434.16 376.83Q435.10 375.89 436.43 375.89L436.43 375.89L449.31 375.89Q450.65 375.89 451.59 376.83Q452.53 377.77 452.53 379.11L452.53 379.11ZM436.89 395.21L448.85 395.21L448.85 379.11L436.89 379.11L436.89 395.21Z" data-element="company-name" data-text-path="" data-text="SuperFans DAO" data-font-family="Iceland" fill="#59291e" fill-opacity="1"></path></g></g></svg>